<svg viewBox="0 0 118 38" fill="none" xmlns="http://www.w3.org/2000/svg">
<g clip-path="url(#clip0_3185_1407)">
<path d="M39.0773 37.7365L36.6376 37.7839L36.2696 37.6829C33.2657 37.4073 30.0471 36.0369 29.0045 33.0989C28.5494 31.8195 28.6352 30.5713 28.8303 29.0973C25.6055 31.5415 22.4593 33.71 18.9463 35.4894C15.8626 37.0519 12.4969 37.6442 9.1053 37.0095C7.81614 36.6866 6.59445 36.2426 5.67572 35.2463C4.1253 33.5628 4.04312 30.9267 5.37275 29.0512C3.86281 26.5011 2.68159 23.8961 1.57765 21.1403C0.874805 19.387 0.222253 17.7098 0.00146484 15.9066L0.0309033 13.6533C0.633164 8.98084 4.04066 5.69626 8.21479 3.86443C9.54197 3.28208 10.8029 2.73839 12.0921 2.07624C13.1298 1.54377 14.1515 1.08987 15.2346 0.660903C16.4379 0.278076 17.6388 0.094768 18.8776 0.357884C21.0058 0.810542 22.4875 2.56756 22.6077 4.74107C27.5387 3.23969 32.1863 2.21715 37.1613 2.93417C39.8218 0.882868 43.7874 0.895338 47.0674 1.35049C50.2013 1.78569 53.2053 2.52391 56.1994 3.51652L58.4269 4.37819C59.0709 4.62759 59.7652 4.54279 60.3662 4.17368C64.4164 1.68718 70.4734 -0.234438 75.186 0.174576C76.3329 0.274335 77.492 0.428962 78.5371 0.869151C79.6729 1.348 80.664 1.21582 81.8587 1.11107C85.7949 0.765651 89.6599 0.982627 93.6022 1.40286C97.6855 1.83807 101.565 2.60247 105.595 3.38184L117.645 5.71372C117.596 6.21127 117.301 6.56916 116.998 6.94326L112.579 12.3951C111.361 13.8977 109.969 15.1161 108.423 16.3032C108.622 17.635 108.529 18.9331 108.114 20.1564C108.98 21.275 109.909 22.3386 110.361 23.6654C110.155 25.4013 109.539 27.0672 108.709 28.6048C106.196 33.2586 101.878 34.341 97.0919 35.4907C93.06 36.4596 89.0736 37.2016 84.9301 37.5233L83.6802 37.6205L79.3319 37.6018C76.0765 37.3973 72.8554 36.7776 70.2219 34.7936C67.2352 36.492 62.5397 37.5707 59.1764 37.5806L56.7355 37.5881C52.9992 37.3861 49.4126 36.719 46.3694 34.5741C44.8497 36.5045 41.2288 37.6941 39.0785 37.7353L39.0773 37.7365ZM43.276 31.6512L44.1248 29.7109L45.9328 25.9075C45.9487 28.4003 47.1238 30.3867 49.2691 31.4604C57.1721 35.4146 65.6921 33.0291 73.0124 28.6409L72.9793 30.6299C73.0799 31.5215 73.7263 32.2161 74.6034 32.4804C77.6245 33.3895 80.7437 33.6426 83.928 33.4693C86.3186 33.3384 88.5743 33.0827 90.8926 32.5303L99.1121 30.57C100.373 30.2695 101.516 29.7819 102.641 29.1659C104.569 28.1097 105.75 26.2417 105.993 23.9909C104.281 23.0781 101.472 23.5669 99.4751 24.0894L94.7073 25.3352C91.7868 26.0983 87.9843 26.3614 85.1533 25.3614C84.9338 25.284 84.659 24.976 84.6394 24.784C84.5376 23.7452 86.6927 23.0856 88.1414 22.9073C92.1548 22.4135 96.2933 22.8212 99.9155 22.0643C101.629 21.7064 103.126 20.7637 103.996 19.2336C104.412 18.5016 104.653 17.5527 104.256 16.7895C103.298 14.9465 99.5954 15.0225 97.4255 15.5575L93.3961 16.5513C91.7341 16.9616 90.0377 17.0215 88.372 16.7496L89.0073 15.3268L89.7482 14.0549L94.6031 14.2993C96.4185 14.3903 98.1664 14.5898 99.9731 14.4963C101.93 14.394 103.769 13.9464 105.487 13.0273C107.204 12.1083 108.379 10.88 109.596 9.49585C109.846 9.21154 110.129 8.9771 110.147 8.59303L99.9547 6.634C93.8401 5.45809 87.8322 4.58644 81.6121 5.2037C80.9473 5.26979 80.3279 5.47679 79.8348 5.89952L78.2034 7.2974L78.7235 5.16504C73.8355 3.41925 68.8997 4.62759 64.3085 6.81606C61.637 8.08924 59.1408 9.49461 56.6471 11.092C54.2688 12.6158 52.1823 14.323 50.0946 16.2895C51.3053 14.0387 52.7539 12.0634 54.3006 10.0919L56.0878 7.81615C52.63 6.85846 49.3955 6.04293 45.9732 5.44686C44.5688 5.20245 43.1827 5.13886 41.8102 5.34586C39.4723 5.69876 38.8921 7.57922 38.0224 7.39342L36.3383 7.03304C33.2191 6.3659 28.2145 7.37347 24.9567 8.28377C24.0171 8.54564 23.145 8.95216 22.3587 9.49336C21.0058 10.4249 21.3333 11.7891 21.6767 13.3117C21.8902 14.2594 21.7822 15.1684 21.3173 16.0401C20.6255 17.3369 19.8577 18.569 19.0322 19.7935C18.5182 20.5554 17.862 21.1415 16.9764 21.6029C16.0491 17.2546 17.3566 12.3901 18.3073 8.01442C18.5648 6.83103 18.5894 5.66135 18.2116 4.5191C17.1027 4.40313 16.1055 4.7685 15.1524 5.31219C13.7934 6.08782 12.4515 6.72877 10.9906 7.29491C7.17095 8.77384 3.75977 10.8339 4.16332 15.4278C4.27617 16.7197 4.77294 17.8382 5.23169 19.0603C6.61775 22.7551 8.3031 26.1881 10.6152 29.4016L9.30401 30.7097C8.96424 31.0489 8.55088 31.6387 8.6257 32.135C9.04642 32.7535 9.83267 32.9618 10.5539 33.0266C12.8256 33.2324 14.9942 32.7161 17.0537 31.7085C21.8117 29.3792 25.0683 27.061 28.688 23.1267C30.902 20.72 32.9333 18.2722 34.9915 15.742C35.3828 15.262 35.7459 14.8667 36.3015 14.5063C36.8449 16.7272 36.5039 18.877 35.6158 20.9719C34.3512 23.9522 32.7309 27.7132 32.775 30.8419C32.7897 31.8732 33.3478 32.6026 34.3304 32.9518C36.5996 33.7574 39.1337 33.7748 41.4765 33.1389C42.2714 32.9231 42.9301 32.4405 43.276 31.6499V31.6512Z" fill="var(--art-white)"/>
<path d="M74.8412 22.2302C71.9538 22.2663 69.7005 23.4248 67.1688 24.6344C64.6371 25.8439 61.5485 27.1283 59.0046 26.1806C57.6786 25.6856 57.0297 24.3725 57.5057 23.0232C58.5213 20.1389 60.6568 18.2959 62.677 16.2259L65.2308 13.6097L64.3317 16.903L63.0941 21.1802C65.2001 21.1964 67.1504 20.962 69.2307 20.7537L73.3828 20.3385C73.7912 19.6426 74.0562 18.8558 74.304 18.0091C75.0694 19.2449 75.3981 20.8048 74.8424 22.2302H74.8412Z" fill="var(--art-white)"/>
<path d="M81.792 11.405L79.2039 11.8739L76.4097 12.4363L77.4376 9.56693C78.0705 10.0732 78.6482 10.3239 79.3179 10.5246C80.1741 10.7616 80.8904 10.9548 81.7908 11.4038L81.792 11.405Z" fill="var(--art-white)"/>
</g>
<defs>
<clipPath id="clip0_3185_1407">
<rect width="118" height="38" fill="var(--art-white)"/>
</clipPath>
</defs>
</svg>
