<svg viewBox="0 0 251 29" fill="none" xmlns="http://www.w3.org/2000/svg">
<path d="M250.181 28.5293H0V0H250.181V28.5293ZM63.749 5.04004C58.8256 5.04004 55.833 9.87463 55.833 14.5273C55.8332 20.5436 59.2773 23.4345 63.6455 23.4346C64.7024 23.4346 66.6091 23.0174 67.6934 22.6484L69.3369 22.5215V15.9707H64.0127V16.9209H65.8428V21.8096C65.2319 21.991 64.5706 22.1768 63.8555 22.1768C61.3653 22.1765 59.7003 20.3104 59.7002 14.0283C59.7002 9.90181 60.7563 6.19727 63.8047 6.19727C66.0273 6.19737 66.8244 8.09004 67.6152 11.0869L68.8896 10.7969V6.0625C68.3589 5.72079 66.6882 5.04011 63.749 5.04004ZM90.334 5.04004C84.8785 5.04018 82.4912 9.43022 82.4912 14.4473C82.4914 20.4695 85.7239 23.4345 90.334 23.4346C95.7955 23.4346 98.2118 19.0453 98.2119 14.0283C98.2119 8.37762 95.2574 5.04004 90.334 5.04004ZM5.30469 10.6377C5.728 10.6603 6.07276 10.7424 6.49609 10.7695L7.42578 7.40527C7.69188 6.43308 8.00809 6.27542 9.06934 6.27539H10.9209V22.1768H8.43164V23.125H17.04V22.1768H14.5225V6.27539H16.4307C17.5661 6.27541 17.752 6.50712 18.0166 7.40527L18.9424 10.7695C19.3672 10.7423 19.7105 10.6604 20.1338 10.6377V6.27539H22.0703V22.1768H20.0322V23.125H27.4961V22.1768H25.6709V14.9229H31.0977V22.1768H29.2998V23.125H36.5381V22.1768H34.6982V6.27539H36.5273V5.32617H29.2998V6.27539H31.0977V13.5518H25.6709V6.27539H27.4961V5.32617H5.49023L5.30469 10.6377ZM37.4014 6.27539H39.0674V22.1768H37.3896V23.125H49.8486L50.0352 17.6279L48.8672 17.4199L48.127 20.4121C47.755 21.6006 47.1723 22.1768 46.2197 22.1768H42.6182C42.6182 21.5734 42.6178 19.757 42.6465 18.127C42.6465 17.1022 42.6738 15.238 42.6738 14.9492H47.2529V13.4746H42.6738V6.27539H45.4795C46.4575 6.27551 46.8811 6.64339 47.1729 7.55957L48.0996 10.6875C48.5002 10.6376 48.8434 10.6374 49.2666 10.583V5.32617H37.4014V6.27539ZM70.3975 6.27539H72.2266V22.1768H70.3184V23.125H82.0498L82.4443 17.4473C82.0497 17.3958 81.7321 17.3953 81.333 17.3379L80.3271 20.3877C79.8765 21.7274 79.3741 22.1768 78.3398 22.1768H75.7217C75.8275 22.0178 75.8271 20.2552 75.8271 6.27539H77.8096V5.32617H70.3975V6.27539ZM97.9912 6.27051H99.8711V22.1768H97.9912V23.125H105.538C109.297 23.125 111.521 21.2039 111.521 18.4443C111.521 16.3155 109.906 14.5273 107.684 14.0283V13.8691C109.669 13.2931 111.127 11.4 111.127 9.92578C111.127 7.06045 109.139 5.32628 105.38 5.32617H97.9912V6.27051ZM112.503 6.27539H114.169V22.1768H111.894V23.125H124.946L125.132 17.6279L123.969 17.4199L123.226 20.4121C122.857 21.6006 122.271 22.1768 121.321 22.1768H117.72C117.72 21.5734 117.72 19.757 117.744 18.127C117.744 17.1022 117.771 15.238 117.771 14.9492H122.354V13.4746H117.771V6.27539H120.576C121.559 6.27543 121.982 6.64329 122.275 7.55957L123.201 10.6875C123.597 10.6376 123.941 10.6375 124.364 10.583V5.32617H112.503V6.27539ZM137.265 5.32617C136.599 8.00954 132.681 20.125 132.681 20.125C132.309 21.2558 131.698 22.199 130.535 22.1992H130.506V23.1221H136.205V22.1768H136.046C134.481 22.0453 134.002 22.0177 134.002 20.8887C134.002 20.544 134.029 20.1521 134.137 19.626L135.063 16.417H139.384L141.05 22.1768H139.09V23.125H151.007V22.2041C148.81 22.1496 148.676 21.5415 148.676 20.4424V9.42969C151.431 14.0007 154.134 18.5767 156.912 23.125H158.316V7.74512C158.316 6.58854 159.029 6.29814 160.327 6.27539H162.155V22.1768H160.169V23.125H167.372C172.616 23.125 175.659 18.9953 175.659 14.001C175.666 8.92639 172.193 5.32617 167.135 5.32617H154.9V6.27539C156.781 6.27539 157.098 6.77438 157.098 7.74512V16.6064C154.822 12.8474 152.57 9.11238 150.317 5.32617H145.632V6.16992C146.4 6.4074 146.955 6.98356 147.405 7.55957V20.4121C147.405 21.9362 146.608 22.1495 145.79 22.1768H144.916L139.729 5.32617H137.265ZM181.563 6.27539C183.392 6.27539 183.527 6.5662 183.527 8.32324V8.50879C183.369 11.663 183.026 17.5239 182.784 20.8369C182.731 21.5733 182.123 22.1768 180.535 22.2539V23.125H186.808V22.2041C184.561 22.1497 184.216 21.3903 184.216 20.8369C184.216 20.5194 184.294 18.2087 184.374 15.998C184.481 12.9256 184.585 10.9282 184.69 7.7998V7.93066C186.203 12.1857 187.818 16.5242 189.325 20.7822L189.907 20.5195C191.392 16.4975 192.848 12.6355 194.355 8.64062L195.044 22.1768H193.299V23.125H205.505V22.1768H205.346C203.782 22.0452 203.308 22.0178 203.308 20.8887C203.308 20.544 203.336 20.152 203.438 19.626L204.369 16.417H208.682L210.354 22.1768H208.39V23.125H222.53V22.1768H220.892V6.27539H222.535V5.32617H215.355V6.27539H217.025V22.1768H214.22L209.026 5.32617H206.566C205.905 8.00912 201.982 20.125 201.982 20.125C201.642 21.1667 201.089 22.0452 200.094 22.1768H198.701L197.747 6.27539H199.786V5.32617H194.197L190.81 14.792C189.697 11.6636 188.53 8.45762 187.473 5.32617H181.563V6.27539ZM223.484 6.27539H225.312V22.1768H223.404V23.125H235.136L235.536 17.4463C235.135 17.3873 234.819 17.3878 234.423 17.3379L233.419 20.3877C232.967 21.7273 232.459 22.1767 231.433 22.1768H228.808C228.915 22.018 228.915 20.2605 228.915 6.27539H230.901V5.32617H223.484V6.27539ZM90.334 6.27539C91.8567 6.27539 94.1611 7.21895 94.1611 14.2637C94.1611 20.5978 92.277 22.2041 90.334 22.2041C88.6496 22.204 86.5391 20.8093 86.5391 14.2109C86.5391 8.19152 88.0856 6.27554 90.334 6.27539ZM105.59 14.5273C107.311 14.5274 107.841 16.1816 107.841 18.418C107.841 21.4917 106.808 22.1768 105.565 22.1768H103.76C103.5 22.1766 103.5 21.936 103.5 21.5732V14.5273H105.59ZM165.785 6.27539C169.573 6.27557 171.61 8.64058 171.61 14.2109C171.61 19.9657 169.996 22.1766 166.395 22.1768C165.973 22.1768 165.785 21.8863 165.785 21.3828V6.27539ZM139.09 15.4766H135.33L137.211 8.92578L139.09 15.4766ZM208.395 15.4766H204.631L206.51 8.92578L208.395 15.4766ZM242.785 4.79199C242.785 4.78569 242.783 4.32347 242.501 4.73047C242.278 5.01798 241.389 5.86419 241.101 5.96094C240.822 6.05465 240.408 5.80174 240.469 5.45703C240.469 5.10991 240.245 5.23359 240.148 5.45703C240.055 5.67471 239.385 7.8181 239.23 7.94629C239.069 8.07027 238.941 8.38806 238.658 7.85449C238.374 7.31316 237.872 6.0424 237.406 6.66992C237.28 6.54749 236.466 5.45458 235.801 5.42285C235.703 5.55144 235.861 5.86414 235.991 5.96094C236.117 6.11667 236.117 6.56112 235.991 6.87109C235.861 7.18864 235.861 7.59898 236.024 7.97852C236.116 8.16753 235.991 8.4818 235.447 8.54688C234.912 8.60887 235.006 8.76465 235.229 9.0459C235.448 9.3334 236.275 10.0259 236.466 10.2783C236.652 10.5338 236.434 10.8423 236.052 10.874C235.671 10.9088 235.327 10.7802 235.229 11.0049C235.196 11.2256 235.512 11.1294 235.644 11.3184C235.65 11.3296 236.345 12.5758 237.262 12.5186C238.179 12.4566 238.22 12.5734 238.119 12.96C238.025 13.288 237.286 14.3575 236.592 14.4424C236.592 14.4424 236.285 14.3506 236.244 14.6953C236.225 14.8373 236.275 14.9584 236.438 15.0898C236.47 15.1125 236.527 15.1318 236.569 15.1318C237.188 15.1812 237.904 14.1136 238.37 13.3154C238.58 12.9483 238.663 12.832 238.762 12.832C238.808 12.8319 238.979 12.8101 239.165 13.1465C239.416 13.5865 240.693 14.8517 242.311 14.5039C242.375 14.3453 242.087 14.2188 241.896 14.1221C241.885 14.1134 241.238 13.5843 242.088 13.3398C242.944 13.1463 243.359 13.4599 244.089 12.8672C244.121 12.6736 243.707 12.5762 243.707 12.5762C243.691 12.5659 243.225 12.2587 244.688 11.8262C245.419 11.6326 245.419 11.5088 245.298 11.415C245.166 11.3184 244.819 11.1908 245.325 10.8418C245.865 10.497 246.214 10.025 246.183 9.86621C246.089 9.74723 245.865 9.77503 245.583 9.93359C245.265 10.0878 244.852 9.99481 244.628 9.64551C244.409 9.29829 244.181 9.36369 243.898 9.58887C243.614 9.80505 243.042 10.1222 242.785 9.58887C242.626 8.98862 242.687 9.14709 243.135 8.32324C243.582 7.50295 243.674 6.84523 243.674 6.71582C243.674 6.59183 243.614 6.5268 243.199 6.71582C242.85 6.80839 242.818 5.04745 242.785 4.79199ZM105.353 6.27539C106.674 6.2755 107.707 7.3279 107.707 10.1914C107.707 11.9256 106.995 13.4246 105.725 13.4248H103.495V6.27539H105.353Z" fill="var(--art-white)"/>
</svg>
