<svg viewBox="0 0 167 36" fill="none" xmlns="http://www.w3.org/2000/svg">
<g clip-path="url(#clip0_3185_1340)">
<path d="M10.579 27.806L-0.000488281 27.751V2.28882e-05L11.8299 0.077058C19.4931 0.128415 25.0616 7.11293 24.7865 14.4239C24.5077 21.8817 18.4329 27.8464 10.5753 27.806H10.579ZM9.85634 22.7951C15.1057 22.7584 18.9318 18.5215 18.8144 13.7123C18.697 8.90308 14.7242 4.88992 9.62524 4.94861L3.1983 5.02565L5.97524 7.986L5.98257 22.8244L9.85267 22.7988L9.85634 22.7951Z" fill="var(--art-white)"/>
<path d="M113.568 27.5272L107.676 27.6776L107.64 16.8157L92.8709 16.8743L95.8129 19.8714L95.8313 27.6189L89.9583 27.6409L89.9546 0.073349L95.7836 0.0806857L95.8349 10.9096L110.523 10.8913L107.695 8.04832L107.676 0.073349L113.56 0.124706L113.568 27.5272Z" fill="var(--art-white)"/>
<path d="M27.2152 25.4986C25.4581 23.6902 25.315 21.1884 26.1771 18.9837C26.8264 17.3256 28.91 15.6675 31.1843 15.6051L39.5078 15.3814C39.4675 13.4665 37.9194 12.3587 36.0045 12.2486C34.5262 12.1642 33.3157 12.8612 32.1968 13.7746L26.1404 13.8847C27.5967 7.83192 35.1425 6.42695 40.634 8.48856C43.8108 9.68077 45.4579 12.4357 45.4542 15.7042L45.4469 27.74L39.5995 27.718L39.2437 25.9792C35.8872 28.9652 30.469 28.8478 27.2115 25.495L27.2152 25.4986ZM36.287 23.6975C38.6384 23.4334 39.8416 21.7459 39.5115 19.2808L33.7669 19.3175C32.8901 19.3248 31.8006 20.3116 31.7053 21.0966C31.6282 21.7203 32.2188 22.9748 32.8791 23.2426C33.9906 23.6975 35.2159 23.8149 36.2907 23.6938L36.287 23.6975Z" fill="var(--art-white)"/>
<path d="M87.5193 8.04099L76.0924 35.5866L69.8232 35.5829L73.1284 27.4942L64.251 7.97496L71.3345 7.92728L76.2721 19.8897L81.2464 7.96029L87.5193 8.04099Z" fill="var(--art-white)"/>
<path d="M160.035 21.8853L166.043 21.7863C164.162 28.6754 153.953 29.9336 148.733 25.4986C144.232 21.6725 144.176 14.1378 148.586 10.1943C152.529 6.66536 158.773 6.78275 162.775 9.9632C165.607 12.2156 166.385 15.8069 166.099 19.024L151.315 19.013C151.612 21.0673 153.028 22.5089 154.452 22.9785C156.546 23.6718 158.094 23.2463 160.035 21.8853ZM160.101 15.1906C159.206 12.498 157.324 12.0211 155.435 12.0615C153.582 12.1018 151.957 13.2647 151.532 15.275L160.097 15.1906H160.101Z" fill="var(--art-white)"/>
<path d="M140.105 7.98229L146.235 8.10702L138.154 27.6813H131.998L123.462 7.98963L130.263 7.96762L135.201 20.2309L140.105 7.98229Z" fill="var(--art-white)"/>
<path d="M63.2933 27.5932L57.3506 27.7363L57.3579 0.0366627L63.2676 0.0256577L63.2933 27.5932Z" fill="var(--art-white)"/>
<path d="M54.4305 27.685L48.4805 27.7216V7.96396L54.4232 7.96763L54.4305 27.685Z" fill="var(--art-white)"/>
<path d="M122.402 27.5346L116.532 27.6409L116.547 7.92361L122.387 7.93828L122.402 27.5346Z" fill="var(--art-white)"/>
<path d="M54.4528 5.97572L48.4514 6.0234L48.4478 0.0366731L54.4088 0.0330048L54.4528 5.97572Z" fill="var(--art-white)"/>
<path d="M116.532 5.96472L116.517 0.106376L122.401 0.0843658L122.368 5.89135L116.532 5.96472Z" fill="var(--art-white)"/>
</g>
<defs>
<clipPath id="clip0_3185_1340">
<rect width="167" height="36" fill="var(--art-white)"/>
</clipPath>
</defs>
</svg>
