<svg viewBox="0 0 105 59" fill="none" xmlns="http://www.w3.org/2000/svg">
<path d="M10.0497 28.9574H14.7566C13.7845 31.0034 11.759 32.5468 9.42688 32.2059C7.57363 31.9349 5.94117 30.5067 5.19663 28.8252C3.58981 25.1974 5.15255 20.0022 9.36308 19.3093C11.6199 18.9376 13.7976 20.2123 14.7075 22.3151H19.2189C18.66 18.9439 16.3034 16.1015 12.792 15.1756C9.50515 14.3088 5.83089 14.9415 3.32716 17.3063C-1.43477 21.8036 -1.10415 31.1712 4.44156 34.8835C7.5914 36.9921 12.4346 37.3214 15.262 34.4779V36.086H19.3289V24.7995C17.489 24.7997 10.0557 24.7995 10.0557 24.7995L10.0497 28.9574Z" fill="var(--art-white)"/>
<path d="M22.2031 36.0798H27.0096V15.1929H22.2031V36.0798Z" fill="var(--art-white)"/>
<path d="M37.035 32.648C34.7447 32.648 33.9918 30.763 33.9451 28.4186C33.8982 26.0701 34.8164 24.1936 37.0186 24.2001C39.1425 24.2061 40.0491 26.0831 40.0491 28.4279C40.0491 30.7727 39.1587 32.648 37.035 32.648ZM37.0528 20.3208C31.9514 20.3335 29.161 23.9547 29.1224 28.4136C29.0841 32.8657 31.9579 36.4703 37.0639 36.4835C42.084 36.4964 44.8408 32.8969 44.8408 28.4279C44.8408 23.9588 42.0731 20.3081 37.0528 20.3208Z" fill="var(--art-white)"/>
<path d="M57.4355 30.0708C57.0564 31.9388 55.457 33.3196 53.3963 32.3057C51.711 31.4768 51.5455 28.5341 51.9285 26.7618C52.4466 24.3637 54.518 23.6383 56.0393 24.4661C57.6643 25.3501 57.8441 28.3062 57.4355 30.0708ZM60.4117 22.2831C58.2861 19.9588 54.2628 19.5646 51.9051 21.8019V15.1929H47.0986V36.0827H51.6911V35.0189C53.037 36.3633 55.4215 36.711 57.2136 36.3367C59.0672 35.9498 60.5991 34.6968 61.4291 32.9986C62.9779 29.8296 62.7963 25.0044 60.4117 22.2831Z" fill="var(--art-white)"/>
<path d="M73.7419 30.0417C73.7419 31.0934 73.489 32.2705 72.4459 32.6881C71.0049 33.2652 69.7707 32.8739 69.4112 32.5251C69.0012 32.1271 68.6471 30.6025 70.1028 30.0643C70.6806 29.8508 71.3019 29.7669 71.9072 29.6857C72.538 29.6008 73.135 29.4988 73.7419 29.2943V30.0417ZM78.5474 25.506C78.5465 24.4593 78.5239 23.3873 77.8828 22.5026C76.1719 20.1421 72.4564 20.1125 69.8608 20.4793C67.0739 20.8733 64.7777 22.5643 64.6618 25.5837L64.653 25.9043H69.4494C69.4831 25.1108 69.685 24.2882 70.4885 24.0152C71.2409 23.7594 72.7684 23.6666 73.409 24.3039C73.685 24.5784 73.801 25.1388 73.7364 25.5683C73.6763 25.9681 73.3117 26.1252 72.9712 26.2819C72.2122 26.6316 70.9709 26.5869 69.4318 26.8505C67.3374 27.2091 65.0959 27.8061 64.4287 30.1632C63.8048 32.3683 64.5091 34.8426 66.5862 35.8404C68.7997 36.9036 72.1065 36.6211 74.0405 35.109C74.0466 35.136 74.0405 36.0859 74.0405 36.0859H78.5474C78.5474 36.0859 78.5502 29.0326 78.5474 25.506Z" fill="var(--art-white)"/>
<path d="M86.0052 15.1936H81.1987V36.0865H86.0052V15.1936Z" fill="var(--art-white)"/>
<path d="M32.0473 40.3936V50.8777L26.0855 40.3936H22.2031V57.986H26.064V47.5218L32.0043 57.986H35.9084V40.3936H32.0473Z" fill="var(--art-white)"/>
<path d="M41.9813 54.1766V50.7473H49.4439V47.1577H41.9813V44.2577H50.1119V40.403H37.9302V57.986H50.2847V54.1766H41.9813Z" fill="var(--art-white)"/>
<path d="M68.7992 40.3936L66.5014 50.9496L64.1049 40.3936H60.4098L57.976 50.8114L55.7581 40.3936H51.6704L55.934 57.986H59.8876L62.2262 47.5509L64.6043 57.986H68.4915L72.8228 40.3936H68.7992Z" fill="var(--art-white)"/>
<path d="M72.3544 51.6626L72.3496 52.0186C72.3334 53.116 72.5217 54.0813 72.9056 54.8897C73.2886 55.6938 73.8137 56.3665 74.4641 56.888C75.1081 57.4055 75.8592 57.7878 76.6966 58.0294C77.523 58.2643 78.3843 58.3848 79.2574 58.3848C80.3378 58.3848 81.3058 58.2436 82.1345 57.9678C82.9738 57.6854 83.6885 57.2866 84.2594 56.7768C84.8385 56.263 85.2804 55.6417 85.5742 54.9322C85.8665 54.2238 86.0138 53.4495 86.0138 52.6282C86.0138 51.6137 85.8111 50.764 85.408 50.0984C85.0171 49.4529 84.5448 48.9289 84.0053 48.5424C83.4747 48.1609 82.9317 47.879 82.3923 47.7036C81.8741 47.5377 81.4604 47.419 81.1617 47.3524C81.1782 47.3577 78.8338 46.696 78.8338 46.696C78.2579 46.5289 77.803 46.3601 77.4824 46.1961C77.1362 46.0201 76.9975 45.8657 76.9416 45.7673C76.8602 45.621 76.8184 45.4141 76.8184 45.1516C76.8184 44.8622 76.8723 44.6274 76.9797 44.4524C77.0997 44.2553 77.2487 44.0958 77.4346 43.964C77.6227 43.8325 77.8363 43.7373 78.0711 43.6823C78.3214 43.6246 78.5758 43.5959 78.8253 43.5959C79.2197 43.5959 79.5863 43.6338 79.9164 43.7061C80.2282 43.7761 80.5077 43.8956 80.7469 44.06C80.9759 44.2176 81.1545 44.4303 81.2937 44.7085C81.4356 44.9918 81.5211 45.3621 81.547 45.8111L81.5656 46.1496H85.4876V45.7881C85.4876 44.7561 85.3037 43.8584 84.9397 43.1228C84.5787 42.3912 84.0829 41.7832 83.4664 41.3103C82.8582 40.8459 82.1553 40.5064 81.3777 40.3005C80.6141 40.0979 79.806 39.9961 78.9766 39.9961C78.2588 39.9961 77.5322 40.1027 76.8155 40.3154C76.089 40.5304 75.4297 40.867 74.8518 41.3147C74.2681 41.7676 73.7893 42.3427 73.4287 43.0219C73.0626 43.7134 72.8758 44.5327 72.8758 45.4599C72.8758 46.2892 73.0235 47.0101 73.3153 47.6029C73.6036 48.189 73.9866 48.6862 74.4556 49.0773C74.9105 49.4584 75.4342 49.7732 76.0092 50.0131C76.5693 50.2475 77.1498 50.4458 77.7357 50.6059C78.2923 50.7772 78.8569 50.9381 79.4047 51.0799C79.9342 51.2156 80.4139 51.3772 80.8296 51.5591C81.2198 51.7311 81.5373 51.9426 81.7728 52.1912C81.9742 52.4067 82.0716 52.6845 82.0716 53.0439C82.0716 53.387 81.9975 53.6575 81.8414 53.868C81.6686 54.1028 81.4583 54.283 81.1975 54.4181C80.9271 54.5586 80.6294 54.6555 80.3163 54.7057C79.9895 54.7581 79.677 54.7842 79.3872 54.7842C78.9681 54.7842 78.5581 54.729 78.1691 54.6189C77.7912 54.5122 77.4594 54.3481 77.1843 54.1304C76.917 53.9208 76.6987 53.6413 76.5357 53.3002C76.3746 52.9601 76.2911 52.5315 76.2911 52.0251V51.6626H72.3544Z" fill="var(--art-white)"/>
<path d="M83.6021 0V10.3155L97.5661 20.6219L90.584 25.776L90.5838 36.0856L104.548 25.776V15.4679L83.6021 0Z" fill="var(--art-white)"/>
</svg>
