<svg viewBox="0 0 211 25" fill="none" xmlns="http://www.w3.org/2000/svg">
<path d="M27.1755 24.0816H34.8524L38.9682 0.525414H31.2912L29.7734 8.96127H23.1181L24.636 0.525414H16.959L12.8433 24.0816H20.5202L22.0672 15.2663H28.7225L27.1755 24.0816Z" fill="var(--art-white)"/>
<path d="M43.318 0.496239L40.9828 13.6025C40.7785 14.6241 40.6909 15.6166 40.6909 16.5506C40.6909 23.4978 46.7624 24.5487 50.4111 24.5487C58.0589 24.5487 61.3573 22.0091 62.5541 15.1495L65.1228 0.467056H57.4459L55.2566 12.7852C54.5561 16.6382 54.0599 18.6523 51.1993 18.6523C49.3311 18.6523 48.4262 17.6599 48.4262 15.6166C48.4262 14.8284 48.543 13.8652 48.7765 12.6684L50.9949 0.467056H43.318V0.496239Z" fill="var(--art-white)"/>
<path d="M105.696 24.0816H113.373L114.453 18.0101H118.073C124.757 18.0101 128.464 14.3906 128.464 7.79366C128.464 3.15248 125.253 0.496208 119.62 0.496208H109.812L105.696 24.0816ZM117.664 12.2013H115.446L116.467 6.65526H118.54C120.233 6.65526 121.138 7.50177 121.138 9.04883C121.138 11.0045 119.824 12.2013 117.664 12.2013Z" fill="var(--art-white)"/>
<path d="M143.381 7.62939e-06C135.032 7.62939e-06 130.041 5.40013 130.041 14.4782C130.041 20.7832 134.011 24.5778 140.666 24.5778C149.014 24.5778 154.006 19.1777 154.006 10.0997C154.035 3.7655 150.065 7.62939e-06 143.381 7.62939e-06ZM141.133 18.4772C139.148 18.4772 137.981 17.0469 137.981 14.6533C137.981 13.7484 138.068 12.9603 138.243 12.0554C138.827 8.96128 139.82 6.12987 142.943 6.12987C144.928 6.12987 146.095 7.56017 146.095 9.95374C146.095 10.8586 146.008 11.6467 145.833 12.5516C145.249 15.6166 144.256 18.4772 141.133 18.4772Z" fill="var(--art-white)"/>
<path d="M180.715 24.0816H188.391L191.427 6.83042H197.207L198.316 0.525414H178.671L177.562 6.83042H183.692L180.715 24.0816Z" fill="var(--art-white)"/>
<path d="M167.987 9.22399C165.564 8.46506 164.572 8.14397 164.572 7.00556C164.572 6.24663 165.068 5.34174 166.528 5.34174C167.608 5.34174 168.513 5.95473 168.863 6.85962L175.635 5.02065C174.847 1.69301 171.986 7.62939e-06 167.053 7.62939e-06C157.771 7.62939e-06 157.041 6.21744 157.041 8.11477C157.041 11.9678 159.084 14.3322 163.521 15.5582C164.689 15.8793 166.031 16.2295 166.031 17.5139C166.031 18.5355 165.272 19.1777 163.959 19.1777C162.762 19.1777 161.478 18.4772 161.04 17.2512L154.355 19.061C155.085 22.5637 158.384 24.5486 163.55 24.5486C167.491 24.5486 174.088 23.4978 174.088 16.3755C174.117 12.8143 172.103 10.4792 167.987 9.22399Z" fill="var(--art-white)"/>
<path d="M8.55262 24.0816L12.6976 0.525414H0V24.0816H8.55262Z" fill="var(--art-white)"/>
<path d="M201.614 0.525414L197.499 24.0816H210.196V0.525414H201.614Z" fill="var(--art-white)"/>
<path d="M74.2881 17.1344H80.7391L81.7899 11.2089H75.339L76.0687 6.8304H85.0884L86.1976 0.496208H69.501L65.3853 24.0816H73.0622L74.2881 17.1344Z" fill="var(--art-white)"/>
<path d="M94.4001 17.1344H100.88L101.931 11.2089H95.4801L96.2098 6.8304H105.229L106.339 0.496208H89.6421L85.5264 24.0816H93.2033L94.4001 17.1344Z" fill="var(--art-white)"/>
</svg>
