<svg viewBox="0 0 220 49" fill="none" xmlns="http://www.w3.org/2000/svg">
<path d="M23.4374 33.179C28.0636 33.179 31.8126 29.2708 31.8126 24.4454C31.8126 19.619 28.0636 15.7096 23.4374 15.7096C18.8098 15.7096 15.0571 19.6197 15.0571 24.4454C15.0571 29.2708 18.8098 33.179 23.4374 33.179Z" fill="var(--art-white)"/>
<path d="M13.7655 33.179C9.13638 33.179 5.38477 29.2708 5.38477 24.4454C5.38477 19.619 9.13638 15.7053 13.7655 15.7053V33.179Z" fill="var(--art-white)"/>
<path d="M33.1079 42.8202L33.1112 34.5282L41.0634 34.533C41.0634 39.1159 37.5022 42.8202 33.1079 42.8202Z" fill="var(--art-white)"/>
<path d="M13.7656 6.06265V14.3623L5.80273 14.363C5.80273 9.77978 9.36983 6.06265 13.7656 6.06265Z" fill="var(--art-white)"/>
<path d="M13.7654 42.8242V34.529L5.80469 34.5337C5.80469 39.1159 9.36701 42.8242 13.7654 42.8242Z" fill="var(--art-white)"/>
<path d="M42.7874 31.9527L42.7822 16.9378C45.2352 18.4616 46.8761 21.2536 46.8761 24.4462C46.8787 27.6373 45.2352 30.4267 42.7874 31.9527Z" fill="var(--art-white)"/>
<path d="M16.2388 4.26628L30.6355 4.26665C29.1744 1.71018 26.5002 0 23.4401 0C20.3763 0 17.6995 1.71018 16.2388 4.26628Z" fill="var(--art-white)"/>
<path d="M30.5286 44.6246L16.1304 44.6232C17.5926 47.1778 20.2668 48.8917 23.3291 48.8917C26.3911 48.8917 29.0649 47.1804 30.5286 44.6246Z" fill="var(--art-white)"/>
<path d="M31.8126 34.5338C31.8126 39.3602 28.0636 43.2692 23.4374 43.2692C18.8098 43.2692 15.0571 39.3595 15.0571 34.5338H31.8126Z" fill="var(--art-white)"/>
<path d="M33.1123 33.179C37.7362 33.179 41.4912 29.2708 41.4912 24.4454C41.4912 19.619 37.7373 15.7053 33.1123 15.7053V33.179Z" fill="var(--art-white)"/>
<path d="M31.8126 14.3729C31.8126 9.5505 28.0636 5.63712 23.4374 5.63712C18.8098 5.63712 15.0571 9.5505 15.0571 14.3729H31.8126Z" fill="var(--art-white)"/>
<path d="M4.08947 31.9527L4.0935 16.9378C1.64012 18.4616 0 21.2536 0 24.4462C0 27.6373 1.64012 30.4267 4.08947 31.9527Z" fill="var(--art-white)"/>
<path d="M41.0634 14.3678L33.1123 14.3623L33.1079 6.06928C37.5022 6.06892 41.0634 9.78311 41.0634 14.3678Z" fill="var(--art-white)"/>
<path d="M74.9951 13.3191H82.8777C85.784 13.3191 90.144 14.1591 90.144 19.0969C90.144 21.7803 88.3381 23.6526 85.6538 24.136V24.2033C88.7227 24.4918 90.8205 26.559 90.8205 29.3368C90.8205 35.0193 85.7185 35.8628 82.8785 35.8628H74.996L74.9951 13.3191ZM79.5177 22.4263H81.3576C83.2631 22.4263 85.6223 22.0067 85.6223 19.6781C85.6223 17.0646 83.3269 16.8723 81.2615 16.8723H79.5177V22.4263ZM79.5177 32.3105H81.6487C83.7483 32.3105 86.298 31.7922 86.298 29.176C86.298 26.2356 83.9073 25.7828 81.6487 25.7828H79.5177V32.3105Z" fill="var(--art-white)"/>
<path d="M71.3494 35.5393C69.7017 35.9283 67.9247 36.2474 66.2141 36.2474C58.9172 36.2456 53.8457 32.598 53.8457 24.976C53.8457 17.2604 58.5597 12.9319 66.2141 12.9319C67.6992 12.9319 69.6711 13.2238 71.3153 13.8698L70.9927 17.6808C69.283 16.7097 67.7332 16.4833 66.1162 16.4833C61.4678 16.4833 58.5597 20.0347 58.5597 24.6552C58.5597 29.2433 61.4013 32.6942 66.2141 32.6942C67.9902 32.6942 70.0907 32.3113 71.1562 31.7598L71.3494 35.5393Z" fill="var(--art-white)"/>
<path d="M110.57 35.5393C108.926 35.9283 107.146 36.2474 105.437 36.2474C98.1374 36.2474 93.0659 32.598 93.0659 24.976C93.0659 17.2604 97.7825 12.9319 105.437 12.9319C106.922 12.9319 108.894 13.2238 110.538 13.8698L110.214 17.6808C108.503 16.7097 106.954 16.4833 105.341 16.4833C100.69 16.4833 97.7816 20.0347 97.7816 24.6552C97.7816 29.2433 100.622 32.6942 105.437 32.6942C107.213 32.6942 109.311 32.3113 110.379 31.7598L110.57 35.5393Z" fill="var(--art-white)"/>
<path d="M115.945 32.3489H117.485C118.013 32.3489 118.581 31.7327 118.581 31.2493V17.992C118.581 17.5069 118.013 16.8076 117.485 16.8076H115.771V12.9459H123.629C124.374 12.9459 124.813 13.5621 124.944 15.93C127.094 13.9126 130.037 12.5936 133.502 12.5936C136.709 12.5936 139.475 13.868 139.475 18.3425V31.2502C139.475 31.7773 140.042 32.3498 140.571 32.3498H141.799V35.9904H130.432V32.3498H133.066V20.5417C133.066 18.2603 132.184 17.6013 130.036 17.6013C128.193 17.6013 126.481 17.9946 124.986 18.478V32.3507H127.663V35.9921H115.945V32.3489Z" fill="var(--art-white)"/>
<path d="M149.308 25.6752C149.571 30.2415 151.593 32.3507 155.278 32.3507C158.131 32.3507 159.138 31.3385 160.324 29.8473H163.967V34.0595C162.084 35.2028 159.577 36.2981 154.75 36.2981C146.761 36.2981 142.767 31.8218 142.767 24.5818C142.767 17.1625 147.374 12.5971 154.309 12.5971C161.2 12.5971 164.799 16.1092 164.799 23.9209C164.799 24.7111 164.712 25.4602 164.712 25.6779L149.308 25.6752ZM149.398 22.0355H158.391C158.173 17.9946 156.946 16.4151 154.311 16.4151C151.636 16.4151 149.878 18.0803 149.398 22.0355Z" fill="var(--art-white)"/>
<path d="M182.799 21.0216L178.236 35.9904H172.747L167.567 18.0392C167.306 17.3347 166.779 16.8076 166.165 16.8076H165.332V12.9459H175.513V16.8076H173.495L176.523 28.3089H176.611L181.089 12.9459H186.002L190.483 28.3089H190.57L192.895 19.7043C193.464 17.6869 193.247 16.8076 191.448 16.8076H190.789V12.9459H200.4V16.8076H199.654C198.951 16.8076 198.25 17.2018 197.987 18.1703L192.764 35.9904H187.279L182.889 21.0233L182.799 21.0216Z" fill="var(--art-white)"/>
<path d="M201.058 35.0254V29.8455H204.746C205.272 31.4678 207.336 32.4757 209.353 32.4757C211.812 32.4757 213.305 31.4276 213.305 29.7581C213.305 28.0458 212.293 27.3439 208.61 26.8186C203.648 26.1149 201.322 24.4035 201.322 19.8809C201.322 15.3164 204.832 12.6845 210.712 12.6845C214.311 12.6845 216.772 13.0805 218.617 13.6924V18.7857H215.062C214.313 17.4265 212.909 16.5454 210.494 16.5454C208.125 16.5454 206.807 17.5104 206.807 18.964C206.807 20.3669 207.643 21.2008 211.548 21.7724C217.121 22.6028 219.407 24.143 219.407 28.7922C219.407 33.3157 216.374 36.2561 209.397 36.2561C205.228 36.2544 202.945 35.639 201.058 35.0254Z" fill="var(--art-white)"/>
</svg>
