<svg viewBox="0 0 159 30" fill="none" xmlns="http://www.w3.org/2000/svg">
<g clip-path="url(#clip0_3185_1469)">
<path d="M0 -3.8147e-06H11.5911C13.799 -3.8147e-06 15.4548 0.554872 16.6814 1.47966C18.0306 2.58941 18.7666 4.19239 18.7666 6.16527C18.7666 8.44643 17.8467 9.86444 16.0068 10.7276V10.8509C18.46 11.6524 19.8705 13.8719 19.8705 16.5229C19.8705 19.0507 18.8892 21.0236 17.2947 22.2566C15.9455 23.2431 14.2283 23.6747 11.8978 23.6747H0V-3.8147e-06ZM10.4259 9.24791C11.6525 9.24791 12.5724 8.56973 12.5724 7.15172C12.5724 5.79536 11.6525 5.11718 10.3646 5.11718H6.37819V9.18626H10.4259V9.24791ZM10.9778 18.4342C12.3884 18.4342 13.431 17.571 13.431 16.0297C13.431 14.3651 12.3271 13.6253 10.9778 13.6253H6.43952V18.4958H10.9778V18.4342Z" fill="var(--art-white)"/>
<path d="M20.9131 -3.8147e-06H26.9846V23.7363H20.9131V-3.8147e-06Z" fill="var(--art-white)"/>
<path d="M28.2109 15.2899C28.2109 9.92613 31.6453 6.35027 36.9809 6.35027C42.3165 6.35027 45.6896 9.98778 45.6896 15.2899C45.6896 20.6537 42.3165 24.2296 36.9809 24.2296C31.6453 24.2296 28.2109 20.6537 28.2109 15.2899ZM39.6181 15.2899C39.6181 12.3306 38.6982 10.481 36.8583 10.481C35.0184 10.481 34.1598 12.3306 34.1598 15.2899C34.1598 18.2493 35.0184 20.1605 36.8583 20.1605C38.6982 20.0988 39.6181 18.2493 39.6181 15.2899Z" fill="var(--art-white)"/>
<path d="M46.3643 15.2899C46.3643 9.92613 49.7987 6.35027 55.1343 6.35027C60.4699 6.35027 63.7816 9.92613 63.7816 15.2899C63.7816 20.6537 60.4085 24.2296 55.0729 24.2296C49.7987 24.2296 46.3643 20.6537 46.3643 15.2899ZM57.7714 15.2899C57.7714 12.3306 56.8515 10.481 55.0116 10.481C53.1717 10.481 52.3131 12.3306 52.3131 15.2899C52.3131 18.2493 53.1717 20.1605 55.0116 20.1605C56.8515 20.0988 57.7714 18.2493 57.7714 15.2899Z" fill="var(--art-white)"/>
<path d="M65.0083 6.78179H70.6505V9.30955H70.7732C71.8771 7.33666 73.4103 6.28857 75.8635 6.28857C78.01 6.28857 79.6045 7.33666 80.4018 9.18625H80.5245C81.8737 6.96675 83.6522 6.28857 85.7374 6.28857C89.6625 6.28857 91.3183 9.18625 91.3183 13.0704V23.6747H85.4308V14.1185C85.4308 12.3922 84.8788 11.2824 83.4069 11.2824C81.935 11.2824 81.1991 12.6388 81.1991 14.4884V23.6747H75.3115V14.1185C75.3115 12.3922 74.7596 11.2824 73.2877 11.2824C71.8158 11.2824 71.0798 12.6388 71.0798 14.4884V23.6747H65.0083V6.78179Z" fill="var(--art-white)"/>
<path d="M98.7392 21.4552H98.6779V23.6747H93.0356V-3.8147e-06H98.9232V8.50808H99.0459C100.15 7.02841 101.683 6.22693 103.829 6.22693C108.061 6.22693 110.514 10.0494 110.514 15.1666C110.514 20.9003 107.877 24.2295 103.462 24.2295C101.622 24.2295 99.7205 23.3664 98.7392 21.4552ZM104.443 15.1049C104.443 12.3922 103.462 10.6043 101.683 10.6043C99.8431 10.6043 98.7392 12.3922 98.7392 15.1049C98.7392 17.8177 99.9044 19.6056 101.683 19.6056C103.462 19.6056 104.443 17.8793 104.443 15.1049Z" fill="var(--art-white)"/>
<path d="M111.188 15.2282C111.188 9.92608 114.684 6.28857 119.713 6.28857C122.228 6.28857 124.129 7.09005 125.601 8.50807C127.563 10.4193 128.422 13.3786 128.361 16.8312H117.076C117.321 18.9274 118.303 20.0371 120.081 20.0371C121.124 20.0371 122.044 19.5439 122.412 18.4342H128.115C127.134 22.3183 124.129 24.2295 119.897 24.2295C114.684 24.1679 111.188 20.592 111.188 15.2282ZM117.076 13.4403H122.473C122.35 11.4057 121.246 10.3576 119.836 10.3576C118.18 10.296 117.26 11.4674 117.076 13.4403Z" fill="var(--art-white)"/>
<path d="M135.046 9.67949H135.169C136.395 7.33668 137.99 6.41189 140.014 6.41189C140.504 6.41189 140.811 6.47354 140.995 6.59685V11.7757H140.872C137.377 11.1592 135.353 12.8238 135.353 16.6463V23.7363H129.404V6.7818H135.046V9.67949Z" fill="var(--art-white)"/>
<path d="M141.608 23.7363H147.311C147.557 24.4762 148.293 25.1544 149.703 25.1544C151.605 25.1544 152.279 23.983 152.279 22.195V20.962H152.156C151.237 22.0717 149.949 22.8732 148.109 22.8732C144.49 22.8732 141.301 20.1605 141.301 14.8583C141.301 9.98777 143.877 6.22695 147.802 6.22695C150.071 6.22695 151.421 7.15174 152.34 8.56976H152.463V6.72017H158.105V21.3935C158.105 24.1063 157.185 26.2025 155.775 27.4355C154.303 28.7302 152.218 29.2851 149.826 29.2851C145.288 29.3467 142.16 27.4972 141.608 23.7363ZM152.524 14.6117C152.524 12.5155 151.543 10.7893 149.826 10.7893C148.17 10.7893 147.127 12.2689 147.127 14.6117C147.127 16.8929 148.17 18.4959 149.826 18.4959C151.482 18.4959 152.524 16.8312 152.524 14.6117Z" fill="var(--art-white)"/>
</g>
<defs>
<clipPath id="clip0_3185_1469">
<rect width="159" height="30" fill="var(--art-white)"/>
</clipPath>
</defs>
</svg>
