<svg viewBox="0 0 162 26" fill="none" xmlns="http://www.w3.org/2000/svg">
<g clip-path="url(#clip0_3185_1480)">
<path fill-rule="evenodd" clip-rule="evenodd" d="M12.9717 -0.000652313C20.1349 -0.000337901 25.942 5.80384 25.9424 12.9632C25.9424 20.1229 20.1351 25.9268 12.9717 25.9271C5.80795 25.9271 0 20.1231 0 12.9632C0.000359674 5.80365 5.80818 -0.000652313 12.9717 -0.000652313ZM16.1162 5.32943C14.4375 4.63983 12.5783 4.52239 10.8262 4.99544C9.07406 5.46854 7.52636 6.50579 6.42285 7.94661C5.31942 9.38751 4.7208 11.1523 4.7207 12.9671C4.7207 14.7821 5.31942 16.5466 6.42285 17.9876C7.52638 19.4286 9.0739 20.4666 10.8262 20.9398C12.5783 21.4128 14.4375 21.2954 16.1162 20.6058C17.7951 19.9161 19.1997 18.6917 20.1133 17.1234L18.2793 16.0599C17.5996 17.2268 16.5547 18.1374 15.3057 18.6507C14.0564 19.164 12.6721 19.2518 11.3682 18.8997C10.0644 18.5477 8.91292 17.7757 8.0918 16.7034C7.27061 15.6312 6.8252 14.3177 6.8252 12.9671C6.8253 11.6167 7.27072 10.3039 8.0918 9.23177C8.91292 8.15955 10.0644 7.38755 11.3682 7.03548C12.6721 6.68344 14.0564 6.7712 15.3057 7.2845C16.5547 7.79784 17.5996 8.70839 18.2793 9.87532L20.1133 8.81087C19.1997 7.2428 17.7949 6.01907 16.1162 5.32943Z" fill="var(--art-white)"/>
<path fill-rule="evenodd" clip-rule="evenodd" d="M51.2354 0.840046V25.0803H27.3838V0.840046H51.2354ZM31.7246 7.18282H38.2246V20.8615H40.3926V7.18282H46.8926V5.06954H31.7246V7.18282Z" fill="var(--art-white)"/>
<path d="M81.0083 0.840046L66.6606 25.7482L52.3179 0.840046H81.0083ZM66.6606 20.8615L75.7622 5.06954H73.2349L66.6606 16.592L60.0874 5.06954H57.5669L66.6606 20.8615Z" fill="var(--art-white)"/>
<path d="M107.868 25.1061V24.2073H108.179C108.972 24.2073 109.507 24.0533 109.772 23.7488C110.036 23.4443 110.175 22.8024 110.175 21.8596V8.91401C110.175 7.92356 110.047 7.27427 109.808 6.9918C109.57 6.70934 109.02 6.56628 108.19 6.56628H107.879V5.65286H120.78L121.173 9.28085H120.05L120.003 8.95803C119.845 7.93456 119.544 7.30727 119.104 7.08717C118.664 6.86707 117.427 6.74602 115.468 6.74602H112.882V14.1891H115.678C116.965 14.1891 117.798 14.0827 118.15 13.8663C118.502 13.6498 118.656 13.1693 118.656 12.3989V12.1018H119.804V17.1604H118.656V16.8963C118.656 16.2103 118.513 15.7151 118.223 15.429C118.066 15.2749 117.49 15.0878 115.678 15.0878H112.882V21.9146C112.858 22.2539 112.941 22.5924 113.119 22.8821C113.297 23.1717 113.562 23.3979 113.876 23.5287C114.555 23.8405 115.784 23.9982 117.523 23.9982H118.047C118.343 24.0235 118.64 23.9887 118.922 23.8961C119.204 23.8034 119.464 23.6547 119.687 23.459C120.054 23.0921 120.296 22.4429 120.457 21.5074L120.505 21.214H121.628L121.261 25.0877L107.868 25.1061Z" fill="var(--art-white)"/>
<path d="M142.09 25.1061H141.165L135.553 10.0255L130.784 25.1061H129.823L124.903 9.01305C124.728 8.33123 124.436 7.68472 124.041 7.10185C123.923 6.93706 123.767 6.80264 123.586 6.70956C123.406 6.61648 123.206 6.56738 123.003 6.56628H122.743V5.65286H129.034V6.56628H128.722C128.331 6.52814 127.938 6.59926 127.585 6.7717C127.483 6.88162 127.407 7.01259 127.362 7.15527C127.317 7.29795 127.304 7.44881 127.324 7.59708C127.337 8.08273 127.417 8.56424 127.563 9.02773L131.073 20.5023L135.747 5.65286H136.646L142.126 20.583L145.596 9.04241C145.763 8.51578 145.86 7.96931 145.883 7.41733C145.883 6.93678 145.417 6.65432 144.492 6.57728L144.188 6.55894V5.65286H149.034V6.56628H148.748C148.554 6.56391 148.363 6.61 148.192 6.70035C148.021 6.79069 147.875 6.92241 147.768 7.08351C147.391 7.69062 147.112 8.35276 146.939 9.04608L142.09 25.1061Z" fill="var(--art-white)"/>
<path d="M154.401 25.5756C152.725 25.5825 151.06 25.3224 149.467 24.8053L149.415 24.7869L149.14 20.4033H150.241L150.292 20.6674C150.459 21.7853 150.99 22.8168 151.803 23.6021C152.616 24.304 153.665 24.6711 154.738 24.6292C155.243 24.6374 155.744 24.546 156.214 24.3603C156.684 24.1746 157.112 23.8983 157.475 23.547C157.838 23.2186 158.127 22.8171 158.324 22.3688C158.52 21.9205 158.62 21.4357 158.615 20.9462C158.615 19.6733 157.618 18.349 155.651 17.0027L153.762 15.6968C151.928 14.4275 150.703 13.4297 150.131 12.7218C149.541 11.9849 149.231 11.064 149.254 10.1209C149.24 9.41029 149.4 8.70702 149.719 8.07221C150.039 7.43739 150.509 6.89022 151.088 6.47824C152.299 5.56483 153.909 5.10261 155.875 5.10261C157.477 5.11369 159.065 5.38756 160.578 5.91332H160.626L161.059 9.67337H159.958L159.877 9.42025C159.228 7.16055 157.731 6.0197 155.431 6.0197C154.488 5.98713 153.568 6.31954 152.864 6.94779C152.535 7.24207 152.275 7.60403 152.1 8.00871C151.925 8.41339 151.84 8.85117 151.851 9.29186C151.851 10.4877 152.702 11.6763 154.386 12.8318L157.119 14.7063C158.828 15.8839 159.969 16.8303 160.505 17.5309C161.068 18.2994 161.356 19.2348 161.323 20.1868C161.345 20.9419 161.187 21.6913 160.86 22.3724C160.533 23.0534 160.048 23.6462 159.445 24.1009C158.197 25.0584 156.51 25.5463 154.415 25.5463" fill="var(--art-white)"/>
<path d="M89.4707 23.5874C89.1259 23.1986 88.9535 22.3793 88.9535 21.1296V6.06009L104.467 25.0988H105.105L105.124 4.80552C105.124 3.55339 105.297 2.73535 105.644 2.3514C106.011 1.98456 106.683 1.7718 107.79 1.7718H108.091V0.832703H100.289V1.7718H100.538C101.675 1.7718 102.416 1.96622 102.768 2.3514C103.121 2.73657 103.293 3.55461 103.293 4.80552V19.2514L88.4656 0.832703H83.6968V1.7718H83.9939C84.7863 1.7718 85.6483 2.34039 86.5948 3.48491L87.0129 4.00215V21.1296C87.0129 22.3793 86.8405 23.1986 86.4957 23.5874C86.1546 23.9543 85.4246 24.1634 84.2947 24.1634H84.0966V25.1024H91.9359V24.1634H91.6717C90.5492 24.1634 89.8192 23.9689 89.4707 23.5874Z" fill="var(--art-white)"/>
</g>
<defs>
<clipPath id="clip0_3185_1480">
<rect width="162" height="26" fill="var(--art-white)"/>
</clipPath>
</defs>
</svg>
