<svg viewBox="0 0 126 37" fill="none" xmlns="http://www.w3.org/2000/svg">
<g clip-path="url(#clip0_3185_1397)">
<mask id="mask0_3185_1397" style="mask-type:luminance" maskUnits="userSpaceOnUse" x="0" y="0">
<path d="M125.09 3.8147e-06H0V36.6834H125.09V3.8147e-06Z" fill="white"/>
</mask>
<g mask="url(#mask0_3185_1397)">
<path d="M6.36001 15.1768C6.36001 17.345 8.39737 17.8824 12.7406 19.3279C18.9176 21.3571 21.5847 23.5809 21.5847 28.464C21.5847 33.3471 17.2136 36.6735 11.1385 36.6735C7.81396 36.6735 5.05427 35.7469 3.22063 35.7469C2.28799 35.7613 1.3938 36.1211 0.710966 36.757L0.183105 28.0192H0.284974C3.12802 33.2359 6.9527 35.8859 11.1478 35.8859C13.4167 35.8859 15.1577 34.8759 15.1577 32.7448C15.1577 30.382 13.1481 29.8538 9.67535 28.6956C3.64662 26.7683 0.220148 24.2944 0.220148 19.4298C0.220148 14.8432 5.00793 11.7114 10.0736 11.7114C13.1111 11.7114 15.0466 12.8233 16.7784 12.8233C17.8165 12.7979 18.8075 12.3847 19.5566 11.665V19.4391H19.4639C17.2414 15.2416 13.3889 12.536 10.0551 12.536C8.11029 12.5268 6.36001 13.4904 6.36001 15.1768Z" fill="var(--art-white)"/>
<path d="M51.6633 34.2933C49.9641 35.802 47.7576 36.6129 45.4866 36.5634C41.2449 36.5634 39.217 34.877 38.7354 32.2177C38.6833 31.8834 38.6521 31.546 38.6425 31.2078C37.772 34.4415 35.0217 36.4244 30.9285 36.4244C27.1687 36.4244 23.7422 34.4971 23.7422 30.346C23.7422 23.7487 30.6692 23.8599 33.929 22.9334C39.7724 21.386 39.115 16.9384 39.115 16.9384C39.115 14.9091 37.7445 12.4537 35.2903 12.4537C33.3085 12.4537 32.1509 14.0011 32.1509 16.0211C32.1509 19.8664 35.2903 19.1066 35.7441 18.9954C35.1068 20.0315 34.2223 20.8931 33.1701 21.5028C32.1179 22.1125 30.9307 22.4513 29.7153 22.4886C27.0668 22.4886 24.5664 20.83 24.5664 18.5043C24.5664 13.8714 29.2523 11.5827 35.5219 11.5827C43.8564 11.5827 48.0144 13.9918 48.0144 20.0795C48.0144 22.7295 47.922 25.639 47.922 29.1971C47.922 32.4772 48.1626 34.2655 50.6263 34.2655C50.9652 34.28 51.3046 34.2488 51.6354 34.1728V34.2655L51.6633 34.2933ZM36.7534 23.3874C34.0494 23.9711 32.9937 25.8521 32.9937 28.8913C32.9937 31.2078 33.7623 32.8478 35.5033 32.8478C37.5776 32.8478 38.4481 30.6796 38.4947 28.3075V22.9519L36.7534 23.3874Z" fill="var(--art-white)"/>
<path d="M63.1467 30.8093C63.1467 33.9968 63.2391 34.5157 65.2674 35.9704V36.0631H51.3761V35.9704C53.4043 34.525 53.4968 33.9875 53.4968 30.8093V5.28201C53.4968 1.95556 52.9227 1.17724 50.6538 0.0190135V-0.0736504H63.1467V30.8186V30.8093Z" fill="var(--art-white)"/>
<path d="M66.3975 24.0546C66.3975 16.4288 72.6204 11.6013 80.0015 11.6013C87.3822 11.6013 93.6055 16.4288 93.6055 24.0546C93.6055 31.6803 87.336 36.5542 80.0015 36.5542C72.667 36.5542 66.3975 31.6803 66.3975 24.0546ZM83.4277 24.0546C83.4277 16.1879 82.6592 12.4259 80.0015 12.4259C77.3434 12.4259 76.5749 16.1879 76.5749 24.0546C76.5749 31.9212 77.3434 35.7758 80.0015 35.7758C82.6592 35.7758 83.4186 31.9676 83.4186 24.0546H83.4277Z" fill="var(--art-white)"/>
<path d="M106.783 12.0831V18.2634C107.941 13.964 111.025 11.6013 115.118 11.6013C120.517 11.6013 122.786 15.4651 122.786 19.9405V30.8001C122.786 33.9875 122.878 34.5064 124.907 35.9611V36.0538H111.015V35.9611C113.044 34.5157 113.136 33.9783 113.136 30.8001V19.5236C113.136 17.5963 112.21 16.0952 110.293 16.0952C108.219 16.0952 106.774 17.7352 106.774 21.84V30.8186C106.774 34.0061 106.867 34.5249 108.895 35.9797V36.0723H95.0038V35.9797C97.0316 34.5342 97.1244 33.9968 97.1244 30.8186V17.448C97.1244 14.066 96.8834 13.5842 94.6611 12.185V12.0924H106.783V12.0831Z" fill="var(--art-white)"/>
</g>
</g>
<defs>
<clipPath id="clip0_3185_1397">
<rect width="126" height="37" fill="var(--art-white)"/>
</clipPath>
</defs>
</svg>
