<svg viewBox="0 0 255 40" fill="none" xmlns="http://www.w3.org/2000/svg">
<g clip-path="url(#clip0_3185_1408)">
<mask id="mask0_3185_1408" style="mask-type:luminance" maskUnits="userSpaceOnUse" x="1" y="-6">
<path d="M1.22266 47.4875H253.373V-5.02273H1.22266V47.4875Z" fill="white"/>
</mask>
<g mask="url(#mask0_3185_1408)">
<path d="M88.909 27.7979C88.9349 27.814 87.2242 27.814 85.8708 27.814H82.7118V27.2329H83.3429C84.0873 27.2329 84.1322 26.4498 83.8841 25.5271C82.9594 22.1439 82.9145 21.8305 82.1474 18.9786H78.0198C77.9749 19.2305 77.456 21.6128 76.8243 24.297C76.3959 26.0864 76.9193 27.2329 78.2951 27.2329V27.814H75.8583H73.5859V27.2329C74.6011 27.2329 75.4119 26.7901 75.7969 25.0795C76.0689 23.8718 80.2527 7.03466 80.5461 5.77643H81.2572C83.7609 14.6119 84.9894 17.978 87.2673 26.0864C87.4705 26.8135 88.1456 27.2329 88.909 27.2165V27.7979ZM79.9145 11.0997L78.2905 18.2884H81.854L79.9145 11.0997Z" fill="var(--art-white)"/>
<path d="M24.4449 27.8032H20.7399H17.1364L17.1327 27.2154H17.8655C18.653 27.2154 18.9015 26.7037 18.9015 25.1554V4.08653C18.9015 2.80772 18.745 2.38407 17.9303 2.38407C15.6096 2.38407 14.9004 4.68552 13.4659 9.14759H13.0356L13.0625 1.93953C13.0894 1.70393 13.1166 1.67032 13.3608 1.67032H28.1344C28.3516 1.67032 28.406 1.70393 28.4332 1.93953L28.3522 9.14759H27.9223C26.8304 4.64221 25.8959 2.38407 23.5557 2.38407C22.7413 2.38407 22.594 2.80772 22.594 4.08653V25.1554C22.594 26.7037 22.8329 27.2154 23.6205 27.2154H24.4449V27.8032Z" fill="var(--art-white)"/>
<path d="M43.3292 6.64325H42.6694C42.0154 6.64325 41.8122 6.95092 41.8122 8.23731V25.6281C41.8122 26.9141 42.0154 27.2218 42.6694 27.2218H43.3292V27.8032H40.254H37.3506V27.2218H37.8875C38.5418 27.2218 38.745 26.9141 38.745 25.6281V16.9837H34.0199V25.6281C34.0199 26.9141 34.2228 27.2218 34.8768 27.2218H35.3547V27.8032H32.4366H29.5405V27.2218H30.0952C30.7495 27.2218 30.9524 26.9141 30.9524 25.6281V8.23731C30.9524 6.95092 30.7495 6.64325 30.0952 6.64325H29.5711V6.07819C29.9546 6.07819 31.2106 6.07304 32.4061 6.07304C33.6015 6.07304 34.9844 6.07819 35.3679 6.07819V6.64325H34.8768C34.2228 6.64325 34.0199 6.95092 34.0199 8.23731V16.243H38.745V8.23731C38.745 6.95092 38.5418 6.64325 37.8875 6.64325H37.3567V6.07819C37.7402 6.07819 38.9974 6.07304 40.1929 6.07304C41.388 6.07304 42.946 6.07819 43.3292 6.07819V6.64325Z" fill="var(--art-white)"/>
<path d="M175.799 11.348C174.423 8.24436 173.25 6.6394 170.836 6.6394C170.138 6.6394 169.799 6.6394 169.483 6.66726C169.303 6.69543 169.258 6.75114 169.258 6.89105C169.258 8.20529 169.279 15.5245 169.279 16.5311H170.136C172.008 16.5311 172.746 14.2832 172.746 12.5777L173.227 12.5962C173.227 12.7918 173.174 14.9261 173.174 17.1349C173.174 19.0923 173.18 20.8215 173.18 21.2687L172.73 21.2502C172.639 18.9576 171.963 17.2645 170.136 17.2645H169.279C169.279 18.6066 169.27 24.3024 169.27 25.8961C169.27 26.3994 169.428 27.1477 169.857 27.1756C170.308 27.2034 171.027 27.2316 171.839 27.2316C173.902 27.2316 175.179 25.2396 176.575 21.7033H176.899C176.538 23.2692 176.206 26.0021 175.755 27.7915C175.732 27.8754 175.681 27.8197 175.546 27.8197H167.677H164.67V27.2382H165.345C165.999 27.2382 166.202 26.9027 166.202 25.6166V8.2813C166.202 6.99492 165.999 6.65969 165.345 6.65969C165.278 6.65969 164.756 6.6394 164.667 6.6394L164.671 6.09432C165.46 6.09432 166.854 6.08948 167.891 6.08948C170.891 6.08948 174.097 6.12249 175.179 6.0383C175.292 6.0383 175.337 6.09432 175.36 6.17821C175.63 7.82798 175.874 9.92199 176.123 11.348H175.799Z" fill="var(--art-white)"/>
<path d="M55.6542 11.348C54.2784 8.24436 53.105 6.6394 50.6917 6.6394C49.9922 6.6394 49.6539 6.6394 49.3382 6.66726C49.1576 6.69543 49.1127 6.75114 49.1127 6.89105C49.1127 8.20529 49.1338 15.5245 49.1338 16.5311H49.9907C51.8627 16.5311 52.6007 14.2832 52.6007 12.5777L53.082 12.5962C53.082 12.7918 53.0292 14.9261 53.0292 17.1349C53.0292 19.0923 53.0353 20.8215 53.0353 21.2687L52.5848 21.2502C52.4944 18.9576 51.8178 17.2645 49.9907 17.2645H49.1338C49.1338 18.6066 49.1246 24.3024 49.1246 25.8961C49.1246 26.3994 49.2832 27.1477 49.712 27.1756C50.163 27.2034 50.8818 27.2316 51.6937 27.2316C53.7568 27.2316 55.0333 25.2396 56.4301 21.7033H56.7534C56.3925 23.2692 56.0607 26.0021 55.6093 27.7915C55.5867 27.8754 55.536 27.8197 55.4006 27.8197H47.5313H44.5248V27.2382H45.2002C45.8545 27.2382 46.0574 26.9027 46.0574 25.6166V8.2813C46.0574 6.99492 45.8545 6.65969 45.2002 6.65969C45.1324 6.65969 44.6119 6.6394 44.5215 6.6394L44.5258 6.09432C45.3151 6.09432 46.7089 6.08948 47.7464 6.08948C50.7464 6.08948 53.9518 6.12249 55.0342 6.0383C55.1469 6.0383 55.1922 6.09432 55.2148 6.17821C55.4855 7.82798 55.7294 9.92199 55.9772 11.348H55.6542Z" fill="var(--art-white)"/>
<path d="M78.4684 2.30271C77.2735 2.30271 76.3512 2.90744 75.564 5.90265C74.3967 10.3453 70.2819 26.3268 69.8198 28.1107H69.1732C68.7389 26.2931 64.4035 8.76462 63.3718 4.62504C62.9373 2.87473 62.72 2.30271 62.0685 2.30271H61.0566V1.67041C61.5181 1.67041 63.2566 1.65588 64.6684 1.65588C66.0803 1.65588 67.78 1.67041 68.2414 1.67041V2.30271H67.5804C66.7929 2.30271 66.7113 2.7739 67.0643 4.15385C68.0147 7.9906 71.0055 20.0096 71.0055 20.0096C71.0055 20.0096 73.6868 9.49533 74.7936 5.14529C75.2823 3.26053 74.7212 2.30271 73.8524 2.30271C73.7708 2.30271 73.0389 2.31906 72.9304 2.31906V1.65588H75.6945C76.6993 1.65588 78.0069 1.67041 78.4684 1.67041V2.30271Z" fill="var(--art-white)"/>
<path d="M101.355 28.1214C97.5662 20.9636 95.7464 17.6426 92.2049 10.9042V24.2132C92.2049 26.3938 92.7238 27.2327 93.5584 27.2327H94.2053V27.8141H91.6335C90.754 27.8141 89.6022 27.8032 89.3962 27.8032V27.2045C89.3085 27.2045 89.9044 27.2327 89.972 27.2327C90.6485 27.2327 91.3896 26.5967 91.3896 24.5V9.31773C91.0965 8.75841 90.7436 8.00893 90.4954 7.56166C90.1348 6.91847 89.7917 6.65411 89.1377 6.65411V6.08904C89.2502 6.08904 90.1947 6.08389 91.1421 6.08389C92.1573 6.08389 93.1073 6.08904 93.1749 6.08904C93.3103 6.08904 93.3329 6.14476 93.4004 6.2568C94.2576 7.90627 99.7384 18.1177 100.844 20.2148V9.72987C100.844 7.60497 100.137 6.64896 98.8739 6.64896L98.8513 6.08389H101.37C102.272 6.08389 103.458 6.08904 103.841 6.08904V6.65411C102.465 6.65411 101.659 7.63283 101.659 9.72987C101.659 10.4845 101.714 26.8072 101.714 28.1214H101.355Z" fill="var(--art-white)"/>
<path d="M238.176 28.1214C234.387 20.9636 232.567 17.6426 229.026 10.9042V24.2132C229.026 26.3938 229.544 27.2327 230.379 27.2327H231.026V27.8141H228.454C227.575 27.8141 226.423 27.8032 226.217 27.8032V27.2045C226.13 27.2045 226.725 27.2327 226.793 27.2327C227.47 27.2327 228.21 26.5967 228.21 24.5V9.31772C227.917 8.75841 227.565 8.00893 227.316 7.56166C226.956 6.91846 226.612 6.6541 225.958 6.6541V6.08903C226.071 6.08903 227.016 6.08389 227.963 6.08389C228.978 6.08389 229.928 6.08903 229.995 6.08903C230.131 6.08903 230.154 6.14475 230.221 6.2568C231.078 7.90627 236.559 18.1177 237.664 20.2148V9.72986C237.664 7.60496 236.958 6.64895 235.695 6.64895L235.672 6.08389H238.19C239.093 6.08389 240.278 6.08903 240.662 6.08903V6.6541C239.286 6.6541 238.48 7.63282 238.48 9.72986C238.48 10.4845 238.535 26.8072 238.535 28.1214H238.176Z" fill="var(--art-white)"/>
<path d="M117.027 6.00417H116.623C116.477 8.28563 115.314 7.00742 115.314 7.00742C113.551 5.58325 111.885 5.76555 111.885 5.76555C108.299 5.76555 104.363 9.635 104.363 16.9884C104.363 22.4129 106.844 28.1105 111.671 28.1105C114.068 28.1105 115.529 26.7723 116.79 25.4635C116.79 24.4572 117.199 21.0244 117.199 20.549H116.874C115.98 24.6783 115.016 27.3988 111.87 27.3988C109.592 27.3988 107.905 24.5656 107.905 16.9884C107.905 9.94267 109.285 6.42903 111.901 6.42903C115.385 6.42903 116.075 9.71343 116.82 12.5884L117.205 12.5733L117.027 6.00417Z" fill="var(--art-white)"/>
<path d="M126.052 28.1107C121.834 28.1107 118.691 23.2237 118.691 16.9887C118.691 10.6978 121.849 5.76578 126.067 5.76578C130.285 5.76578 133.487 10.6415 133.487 16.9326C133.487 23.2237 130.27 28.1107 126.052 28.1107ZM126.097 6.42896C122.985 6.42896 122.165 11.8162 122.165 16.9887C122.165 22.1051 122.954 27.3988 126.067 27.3988C129.179 27.3988 130.014 22.1051 130.014 16.9326C130.014 11.7601 129.21 6.42896 126.097 6.42896Z" fill="var(--art-white)"/>
<path d="M145.247 9.14747C145.247 7.02227 144.564 6.63829 143.3 6.63829L143.278 6.07322H145.796C146.699 6.07322 147.714 6.07807 148.098 6.07807V6.64313C146.722 6.64313 146.055 7.05043 146.055 9.14747" fill="var(--art-white)"/>
<path d="M146.056 9.14738V21.031C146.056 24.8335 145.285 28.1107 141.518 28.1107C137.774 28.1107 136.089 25.309 136.089 22.2614V8.28131C136.089 6.99493 135.886 6.6594 135.232 6.6594H134.48V6.07798C134.864 6.07798 136.407 6.07314 137.602 6.07314C138.775 6.07314 140.177 6.07798 140.56 6.07798V6.6594H140.014C139.337 6.6594 139.157 6.99493 139.157 8.28131V22.2889C139.157 25.4486 139.994 27.3015 142.046 27.3015C144.495 27.3015 145.249 24.8587 145.249 21.0234C145.249 18.6469 145.247 9.51077 145.247 9.14738" fill="var(--art-white)"/>
<path d="M222.339 9.14746C222.339 7.02226 221.655 6.63828 220.392 6.63828L220.37 6.07322H222.888C223.79 6.07322 224.805 6.07806 225.189 6.07806V6.64313C223.813 6.64313 223.147 7.05042 223.147 9.14746" fill="var(--art-white)"/>
<path d="M223.147 9.14738C223.147 9.7821 223.147 18.0806 223.147 21.031C223.147 24.8335 222.377 28.1107 218.61 28.1107C214.866 28.1107 213.18 25.309 213.18 22.2614V8.28131C213.18 6.99493 212.977 6.6594 212.323 6.6594H211.571V6.07798C211.955 6.07798 213.498 6.07314 214.694 6.07314C215.867 6.07314 217.268 6.07798 217.651 6.07798V6.6594H217.105C216.428 6.6594 216.248 6.99493 216.248 8.28131V22.2889C216.248 25.4486 217.085 27.3015 219.138 27.3015C221.586 27.3015 222.341 24.8587 222.341 21.0234C222.341 18.6469 222.339 9.51077 222.339 9.14738" fill="var(--art-white)"/>
<path d="M163.729 6.64323C162.737 6.64323 161.816 7.11866 161.162 9.60725C160.192 13.2977 156.719 26.6289 156.336 28.1106H155.916C155.555 26.6007 151.908 12.0117 151.052 8.57251C150.691 7.11866 150.51 6.64323 149.969 6.64323H149.074V6.07817C149.457 6.07817 151.027 6.07302 152.2 6.07302C153.372 6.07302 154.778 6.07817 155.162 6.07817V6.64323H154.548C153.894 6.64323 153.826 7.03478 154.12 8.18126C154.909 11.3685 157.39 21.4766 157.39 21.4766C157.39 21.4766 159.629 12.6527 160.554 9.01796C160.959 7.45237 160.479 6.64323 159.758 6.64323C159.69 6.64323 159.108 6.62324 159.017 6.62324V6.07302H161.475C162.309 6.07302 163.346 6.07817 163.729 6.07817V6.64323Z" fill="var(--art-white)"/>
<path d="M189.275 27.7655C187.937 27.7282 187.45 26.4064 187.45 26.4064C187.089 25.5676 185.973 22.944 184.101 18.5542C183.763 17.7433 183.425 17.2682 182.748 17.2682C182.545 17.2682 182.5 17.3242 182.5 17.5758V25.6003C182.5 26.8864 182.703 27.1941 183.357 27.1941H183.74V27.8033H180.965H177.839V27.1941H178.575C179.23 27.1941 179.433 26.8864 179.433 25.6003V8.26497C179.433 6.97889 179.23 6.64336 178.575 6.64336H177.839V6.07799C178.177 6.07799 179.763 6.07315 181.027 6.07315C182.628 6.07315 184.35 6.07799 184.778 6.07799C187.236 6.07799 189.515 7.90158 189.515 11.6202C189.515 14.5001 188.214 15.8161 186.816 16.655L186.387 16.8815L188.607 21.6158L190.703 26.2986C190.996 26.9694 191.819 27.2219 192.225 27.2219L192.209 27.8033C192.209 27.8033 190.439 27.7979 189.275 27.7655ZM183.582 6.69938C182.725 6.69938 182.5 6.97889 182.5 7.84556C182.5 9.57891 182.485 13.8866 182.485 16.5147C182.561 16.6089 183.205 16.5689 183.425 16.5689C185.093 16.5689 186.176 15.0872 186.176 11.5364C186.176 8.43274 185.229 6.69938 183.582 6.69938Z" fill="var(--art-white)"/>
</g>
<mask id="mask1_3185_1408" style="mask-type:luminance" maskUnits="userSpaceOnUse" x="1" y="1">
<path d="M1.22266 45.7324H253.373V1.21124H1.22266V45.7324Z" fill="white"/>
</mask>
<g mask="url(#mask1_3185_1408)">
<path d="M208.919 1.35674C209.136 4.7223 209.204 4.8192 209.421 8.25229H209.049C207.99 4.14602 206.188 1.98751 204.288 1.98751C200.971 1.98751 201.019 5.86545 201.193 6.59101C201.592 8.27197 202.075 8.99299 203.38 10.1204C204.168 10.7936 206.34 12.7122 206.91 13.2171C208.632 14.7251 210.44 17.264 210.44 21.0589C210.44 24.9293 208.302 28.2485 204.528 28.2485C202.546 28.2485 201.398 27.5208 200.502 26.7468C199.547 25.9419 199.275 26.3135 198.92 27.9248H198.447C198.447 26.5448 198.25 20.082 198.25 19.6108H198.622C199.745 24.6352 201.756 27.3746 204.514 27.3746C207.007 27.3746 207.659 24.2925 207.368 22.3184C207.132 20.7201 206.666 19.6114 205.335 18.3329C204.032 17.0874 202.142 15.5264 200.611 13.8227C199.318 12.3837 198.411 10.3578 198.411 8.47153C198.411 3.55765 201.299 1.21108 203.96 1.21108C205.057 1.21108 206.308 1.71255 207.292 2.47324C207.61 2.71913 207.775 2.7482 207.937 2.7482C208.294 2.7482 208.4 1.91423 208.429 1.74495L208.504 1.35674H208.919Z" fill="var(--art-white)"/>
<path d="M-1.07959 35.3261H255.672V38.3543H-1.07959" fill="var(--art-white)"/>
</g>
</g>
<defs>
<clipPath id="clip0_3185_1408">
<rect width="255" height="40" fill="var(--art-white)"/>
</clipPath>
</defs>
</svg>
