<svg width="75" height="75" viewBox="0 0 75 75" fill="none" xmlns="http://www.w3.org/2000/svg">
<path d="M32.6738 7.38086C35.3209 4.67113 39.6791 4.67113 42.3262 7.38086C44.6567 9.76688 48.0109 10.8564 51.2988 10.2959C55.0333 9.65942 58.5598 12.2223 59.1084 15.9707C59.5915 19.2707 61.664 22.1234 64.6533 23.6025C68.0488 25.2826 69.3961 29.4282 67.6367 32.7832C66.0877 35.737 66.0877 39.263 67.6367 42.2168C69.3961 45.5718 68.0488 49.7174 64.6533 51.3975C61.664 52.8766 59.5915 55.7293 59.1084 59.0293C58.5598 62.7777 55.0333 65.3406 51.2988 64.7041C48.0109 64.1436 44.6567 65.2331 42.3262 67.6191C39.6791 70.3289 35.3209 70.3289 32.6738 67.6191C30.3433 65.2331 26.9891 64.1436 23.7012 64.7041C19.9667 65.3406 16.4402 62.7777 15.8916 59.0293C15.4085 55.7293 13.336 52.8766 10.3467 51.3975C6.95124 49.7174 5.60386 45.5718 7.36328 42.2168C8.91234 39.263 8.91234 35.737 7.36328 32.7832C5.60386 29.4282 6.95124 25.2826 10.3467 23.6025C13.336 22.1234 15.4085 19.2707 15.8916 15.9707C16.4402 12.2223 19.9667 9.65942 23.7012 10.2959C26.9891 10.8564 30.3433 9.76688 32.6738 7.38086Z" fill="#EA1594" stroke="#FFF30A" stroke-width="3.40909"/>
<path d="M25.2441 47.8322C25.2441 47.8322 30.2417 42.1206 30.6224 42.1206C31.0032 42.1206 32.9546 46.2139 36.4768 46.2139C37.9047 46.2139 38.3806 44.9288 38.3806 44.31C38.3806 42.1206 36.2864 41.2163 33.7162 41.2163C33.2402 40.7403 33.7162 34.6004 33.7162 34.6004C35.9056 34.6004 38.4758 34.648 38.4758 31.7446C38.4758 30.2692 37.4287 29.4124 36.1436 29.4124C33.5734 29.4124 31.4792 32.411 31.4792 32.411C31.4792 32.411 26.6719 28.2701 26.8623 27.1278C27.0527 26.0331 30.432 20.7023 36.7623 20.7023C43.1402 20.7023 47.9475 24.2244 47.9475 30.9831C47.9475 35.124 44.4253 37.1706 44.4253 37.1706C44.4253 37.1706 48.4234 39.4552 48.4234 44.31C48.4234 51.1639 42.9023 55.162 37.0955 55.162C28.195 55.162 25.2441 47.8322 25.2441 47.8322Z" fill="#FFF30A"/>
</svg>
