<svg width="75" height="75" viewBox="0 0 75 75" fill="none" xmlns="http://www.w3.org/2000/svg">
<path d="M32.6738 7.38086C35.3209 4.67113 39.6791 4.67113 42.3262 7.38086C44.6567 9.76688 48.0109 10.8564 51.2988 10.2959C55.0333 9.65942 58.5598 12.2223 59.1084 15.9707C59.5915 19.2707 61.664 22.1234 64.6533 23.6025C68.0488 25.2826 69.3961 29.4282 67.6367 32.7832C66.0877 35.737 66.0877 39.263 67.6367 42.2168C69.3961 45.5718 68.0488 49.7174 64.6533 51.3975C61.664 52.8766 59.5915 55.7293 59.1084 59.0293C58.5598 62.7777 55.0333 65.3406 51.2988 64.7041C48.0109 64.1436 44.6567 65.2331 42.3262 67.6191C39.6791 70.3289 35.3209 70.3289 32.6738 67.6191C30.3433 65.2331 26.9891 64.1436 23.7012 64.7041C19.9667 65.3406 16.4402 62.7777 15.8916 59.0293C15.4085 55.7293 13.336 52.8766 10.3467 51.3975C6.95124 49.7174 5.60386 45.5718 7.36328 42.2168C8.91234 39.263 8.91234 35.737 7.36328 32.7832C5.60386 29.4282 6.95124 25.2826 10.3467 23.6025C13.336 22.1234 15.4085 19.2707 15.8916 15.9707C16.4402 12.2223 19.9667 9.65942 23.7012 10.2959C26.9891 10.8564 30.3433 9.76688 32.6738 7.38086Z" fill="#EA1594" stroke="#FFF30A" stroke-width="3.40909"/>
<path d="M29.3319 54.5908C29.0939 54.5908 29.1415 47.0706 29.1415 47.0706L34.0915 46.9278L34.5674 32.0778C34.5674 32.0778 30.9501 33.7437 30.5694 33.8389C30.1886 33.9341 26.952 28.7461 26.9044 28.5081C26.8569 28.2701 37.2328 19.8456 37.2328 19.8932L43.7059 22.1302C43.7059 22.1302 43.3251 46.4995 43.4203 46.785C43.5155 47.0706 47.1328 46.6898 47.6088 47.1658C48.0848 47.6418 47.6564 54.3528 47.5612 54.4956C47.466 54.6384 29.5698 54.5908 29.3319 54.5908Z" fill="#FFF30A"/>
</svg>
