<svg width="121" height="149" viewBox="0 0 121 149" fill="none" xmlns="http://www.w3.org/2000/svg">
<g clip-path="url(#clip0_3148_476)">
<path d="M42.9915 137.621C17.7049 133.941 27.5225 108.524 34.7019 96.2225C35.6354 94.6229 36.4491 93.3506 37.0339 92.5161C39.2685 89.3235 40.1945 85.9613 40.5296 83.1957C40.9565 79.6756 40.426 77.1224 40.426 77.1224L55.2969 81.9113L72.4787 87.4443C72.4787 87.4443 72.6304 92.0917 73.4431 97.8249C73.9682 101.524 74.7679 105.673 75.9781 109.32C79.0673 118.62 76.3765 142.479 42.9915 137.621Z" fill="#FFF30A" stroke="#2C2630" stroke-width="2.63873" stroke-miterlimit="10"/>
<path opacity="0.3" d="M73.4415 97.8247C65.9611 98.9364 50.3599 100.354 34.7004 96.2224C35.6338 94.6228 36.4475 93.3504 37.0323 92.516C39.2669 89.3234 40.1929 85.9611 40.5281 83.1956C45.1186 82.1675 50.2908 81.6738 55.2953 81.9111L72.4771 87.4442C72.4771 87.4442 72.6288 92.0916 73.4415 97.8247Z" fill="#E61791"/>
<path d="M52.5383 91.763C14.7077 88.5511 10.452 75.9747 12.2371 67.4021C13.1351 63.093 15.9498 59.4494 19.7915 57.3007C42.7359 44.4626 42.1356 12.931 67.0223 9.94185C90.2791 7.14852 92.381 36.0342 89.1716 47.9527C88.7718 49.4408 88.2686 62.6851 99.3239 67.5059C105.29 70.1079 108.778 75.9012 108.316 79.5291C107.225 88.0849 111.382 96.7591 52.5383 91.763Z" fill="#E61791" stroke="#2C2630" stroke-width="2.63873" stroke-miterlimit="10"/>
<g opacity="0.1">
<path d="M108.591 79.5708C108.997 76.3823 105.577 72.7644 101.373 69.0761C102.456 70.648 103.048 72.1648 102.865 73.5957C101.775 82.1515 105.931 90.8257 47.0874 85.8296C29.9836 84.3781 19.7441 81.0104 13.8207 76.9663C17.4104 83.4315 27.7326 89.6752 52.8116 91.8044C111.657 96.8008 107.5 88.1266 108.591 79.5708Z" fill="#2C2630"/>
</g>
<path d="M38.0961 76.0599C32.8801 75.1813 29.3639 70.2407 30.2424 65.0247C31.121 59.8086 36.0617 56.2924 41.2777 57.171C46.4937 58.0495 50.0099 62.9902 49.1314 68.2062C48.2528 73.4223 43.3122 76.9385 38.0961 76.0599Z" fill="#FFF30A"/>
<path d="M85.5732 59.1555C87.0848 65.6212 83.2339 72.049 76.9696 73.5146C70.7071 74.9789 65.4539 70.6789 63.9424 64.2132C62.4308 57.7475 65.2319 51.5656 71.4947 50.0997C77.7572 48.6354 84.0601 52.6896 85.5732 59.1555Z" fill="#FFF30A"/>
<path d="M37.2228 113.004C31.8986 112.107 28.4091 106.473 29.4288 100.419C30.4485 94.3649 35.5912 90.1843 40.9154 91.081C46.2396 91.9778 49.729 97.6124 48.7094 103.666C47.6897 109.72 42.547 113.901 37.2228 113.004Z" fill="#F7F9FC"/>
<path d="M40.5111 110.853C39.3918 110.664 38.6673 109.425 38.893 108.086C39.1187 106.746 40.209 105.813 41.3283 106.001C42.4476 106.19 43.172 107.429 42.9464 108.768C42.7207 110.108 41.6304 111.041 40.5111 110.853Z" fill="#2C2630"/>
<path d="M48.6815 99.4518C48.4821 99.5043 48.3028 99.5556 48.1473 99.6031C48.0267 99.881 47.9176 100.164 47.8211 100.453C42.8674 96.4928 32.8657 100.838 29.186 102.663C29.1538 101.823 29.2069 100.961 29.3537 100.09C30.3733 94.0364 35.5164 89.8551 40.8402 90.7518C44.7711 91.4139 47.7025 94.6605 48.5566 98.7514C48.6053 98.9825 48.646 99.2153 48.6815 99.4518Z" fill="#FFF30A" stroke="#FFF30A" stroke-width="0.439788" stroke-miterlimit="10"/>
<path d="M36.548 112.867C31.2238 111.971 27.7343 106.336 28.754 100.282C29.7737 94.2283 34.9164 90.0477 40.2406 90.9445C45.5648 91.8413 49.0542 97.4759 48.0345 103.53C47.0149 109.584 41.8721 113.764 36.548 112.867Z" stroke="#2C2630" stroke-width="1.61255" stroke-miterlimit="10"/>
<path d="M61.9694 40.0417C58.1113 39.3919 55.5104 35.7374 56.1603 31.8792C56.8101 28.0211 60.4646 25.4202 64.3228 26.0701C68.1809 26.7199 70.7818 30.3744 70.1319 34.2325C69.4821 38.0907 65.8276 40.6916 61.9694 40.0417Z" fill="#FFF30A"/>
<path d="M56.3362 116.179C50.1635 115.139 46.0116 109.238 47.0627 102.997C48.1138 96.7569 53.9699 92.5409 60.1426 93.5806C66.3153 94.6203 70.4672 100.522 69.4161 106.762C68.365 113.003 62.5089 117.219 56.3362 116.179Z" fill="#F7F9FC"/>
<path d="M51.1828 107.056C49.7704 106.818 48.8184 105.48 49.0563 104.068C49.2941 102.655 50.6319 101.703 52.0443 101.941C53.4566 102.179 54.4087 103.517 54.1708 104.929C53.9329 106.341 52.5951 107.294 51.1828 107.056Z" fill="#2C2630"/>
<path d="M69.34 106.434C69.1532 107.543 68.8142 108.588 68.3491 109.552C60.6905 97.9609 51.6208 98.9816 48.3068 99.8497C48.1073 99.9022 47.9281 99.9535 47.7725 100.001C47.8969 99.71 48.0339 99.4257 48.1819 99.1493C50.4257 94.9347 55.1447 92.4234 60.0664 93.2524C66.2392 94.2921 70.3913 100.193 69.34 106.434Z" fill="#FFF30A" stroke="#FFF30A" stroke-width="0.439788" stroke-miterlimit="10"/>
<path d="M37.836 116.157C36.0353 121.6 47.4628 125.736 48.8806 116.944C48.8806 116.944 50.2847 128.091 43.746 128.74C37.2087 129.389 37.5866 121.078 38.1096 120.099C38.1096 120.099 37.0627 116.66 37.8345 116.157L37.836 116.157Z" fill="#2C2630" stroke="#2C2630" stroke-width="1.31936" stroke-linecap="round" stroke-linejoin="round"/>
<path d="M56.3362 116.179C50.1635 115.139 46.0116 109.238 47.0627 102.997C48.1138 96.7569 53.9699 92.5409 60.1426 93.5806C66.3153 94.6203 70.4672 100.522 69.4161 106.762C68.365 113.003 62.5089 117.219 56.3362 116.179Z" fill="#F7F9FC"/>
<path d="M51.1828 112.056C49.7704 111.818 48.8184 110.48 49.0563 109.068C49.2941 107.655 50.6319 106.703 52.0443 106.941C53.4566 107.179 54.4087 108.517 54.1708 109.929C53.9329 111.341 52.5951 112.294 51.1828 112.056Z" fill="#2C2630"/>
<path d="M69.34 106.434C69.1532 107.543 68.8142 108.588 68.3491 109.552C60.6905 97.9609 51.6208 98.9816 48.3068 99.8498C48.1073 99.9023 47.9281 99.9535 47.7725 100.001C47.8969 99.71 48.0339 99.4257 48.1819 99.1494C50.4257 94.9347 55.1447 92.4234 60.0664 93.2524C66.2392 94.2922 70.3913 100.193 69.34 106.434Z" fill="#FFF30A" stroke="#FFF30A" stroke-width="0.439788" stroke-miterlimit="10"/>
<path d="M55.6614 116.044C49.4887 115.004 45.3368 109.103 46.3879 102.862C47.439 96.6217 53.2951 92.4057 59.4678 93.4454C65.6405 94.4851 69.7924 100.387 68.7413 106.627C67.6902 112.868 61.8341 117.084 55.6614 116.044Z" stroke="#2C2630" stroke-width="1.61255" stroke-miterlimit="10"/>
<path d="M47.7316 123.434C47.7316 123.434 40.9208 121.601 39.4668 126.839C40.9599 130.859 49.5829 126.906 47.7316 123.434Z" fill="#E61791"/>
<path d="M46.7329 115.407C46.7329 115.407 52.1558 116.674 53.567 120.623" stroke="#2C2630" stroke-width="1.02617" stroke-linecap="round" stroke-linejoin="round"/>
<path d="M46.3966 100.38C46.3966 100.38 46.6657 100.261 47.1571 100.108C47.3126 100.061 47.4919 100.009 47.6913 99.9568C51.0053 99.0887 60.0751 98.068 67.7337 109.659C68.0756 110.175 68.4136 110.714 68.747 111.281" stroke="#2C2630" stroke-width="1.02617" stroke-miterlimit="10" stroke-linecap="round"/>
<path d="M46.8301 100.958C41.8764 96.9975 31.8748 101.343 28.1951 103.168C27.3127 103.607 26.7947 103.899 26.7947 103.899" stroke="#2C2630" stroke-width="1.02617" stroke-miterlimit="10" stroke-linecap="round"/>
<path opacity="0.3" d="M72.4711 101.01C72.4711 101.01 82.5782 135.423 50.3744 135.726C29.6779 135.921 27.8216 124.722 27.8216 124.722C31.505 136.662 40.0353 138.689 52.2843 138.768C64.5334 138.847 76.5706 133.394 76.3574 115.971C76.5576 105.229 72.4699 101.008 72.4699 101.008L72.4711 101.01Z" fill="#E61791"/>
</g>
<defs>
<clipPath id="clip0_3148_476">
<rect width="99.7855" height="133.629" fill="white" transform="matrix(-0.986109 -0.166096 -0.166096 0.986109 120.595 16.574)"/>
</clipPath>
</defs>
</svg>
