<svg width="40" height="49" viewBox="0 0 40 49" fill="none" xmlns="http://www.w3.org/2000/svg">
<g clip-path="url(#clip0_3303_633)">
<path d="M34.1425 22.8345C34.1425 25.6699 28.0815 27.9256 20.5974 27.8752C13.1132 27.8122 7.05225 25.4683 7.05225 22.6329C7.05225 19.7975 12.9099 16.9495 20.3813 17.0125C27.8528 17.0755 34.1298 20.0117 34.1298 22.8471L34.1425 22.8345Z" stroke="black" stroke-width="0.39" stroke-miterlimit="10"/>
<path d="M20.1527 31.2524C20.1527 31.2524 38.9202 31.2524 38.9202 21.8263C38.9202 21.8263 39.6572 17.6174 32.2493 9.18681C24.8414 0.768851 16.9507 -3.69216 8.05613 6.71687C-0.825696 17.1259 -4.29456 31.5045 16.9507 31.013L20.1654 31.265L20.1527 31.2524Z" fill="#FFF215"/>
<path d="M20.1655 30.9373C43.0626 29.8031 42.8974 19.6335 27.8148 5.633C18.0436 -3.28903 10.0385 3.4529 4.48575 12.7656C-2.59176 24.9515 4.07914 31.0759 16.9381 30.6726C16.9381 30.6726 16.9635 30.6726 16.9762 30.6726L20.1655 30.9499V30.9373ZM20.102 32.6133L16.8364 32.3361H16.9762C2.75767 32.8653 -4.65021 25.2413 3.16428 12.0221C11.5378 -1.6508 21.2075 -4.63741 32.4781 8.16595C47.0652 23.4897 39.0982 31.958 20.102 32.6133Z" fill="#EC008C"/>
<path d="M38.3229 22.8974C36.5567 17.6677 31.1818 14.8449 25.9214 14.114C24.1043 13.8116 22.2619 13.6604 20.4067 13.5721C22.2619 13.4965 24.1297 13.4335 25.9849 13.6225C31.7282 13.9628 37.7765 16.7604 39.9366 22.4186L38.3229 22.8974Z" fill="#EC008C"/>
<path d="M20.1529 27.7742C28.1951 27.7742 34.7146 25.6923 34.7146 23.1242C34.7146 20.556 28.1951 18.4741 20.1529 18.4741C12.1108 18.4741 5.59131 20.556 5.59131 23.1242C5.59131 25.6923 12.1108 27.7742 20.1529 27.7742Z" fill="#EC008C"/>
<mask id="mask0_3303_633" style="mask-type:luminance" maskUnits="userSpaceOnUse" x="5" y="18" width="30" height="10">
<path d="M20.1529 27.7742C28.1951 27.7742 34.7146 25.6923 34.7146 23.1242C34.7146 20.556 28.1951 18.4741 20.1529 18.4741C12.1108 18.4741 5.59131 20.556 5.59131 23.1242C5.59131 25.6923 12.1108 27.7742 20.1529 27.7742Z" fill="white"/>
</mask>
<g mask="url(#mask0_3303_633)">
<path d="M20.4575 15.9539C24.0153 20.7929 26.9505 25.8588 29.2758 31.0255C29.1233 31.0885 28.9582 31.1515 28.8057 31.2146C26.6202 25.9974 23.8374 20.8811 20.4575 15.9539Z" fill="#FFF215"/>
<path d="M20.8262 15.9036C25.68 20.3142 29.7715 25.1406 33.0752 30.1813C32.9227 30.2695 32.783 30.3451 32.6305 30.4334C29.4666 25.3297 25.5149 20.4276 20.8262 15.9162V15.9036Z" fill="#FFF215"/>
<path d="M21.1821 15.8152C27.205 19.6839 32.4019 24.1701 36.7094 29.0344C36.5697 29.1352 36.4299 29.236 36.3028 29.3368C32.1351 24.397 27.0779 19.8099 21.1821 15.8278V15.8152Z" fill="#FFF215"/>
<path d="M21.4995 15.7019C28.5135 18.9027 34.7524 22.9605 40.0764 27.5853C39.9493 27.6988 39.8223 27.8122 39.7079 27.9256C34.5237 23.2125 28.4118 19.054 21.4995 15.7019Z" fill="#FFF215"/>
<path d="M21.7793 15.5381C29.5938 17.9828 36.7602 21.4861 43.0881 25.7833C42.9737 25.9093 42.8721 26.0353 42.7577 26.1613C36.5696 21.7633 29.5302 18.134 21.7793 15.5381Z" fill="#FFF215"/>
<path d="M22.0078 15.3616C30.4068 16.9872 38.3483 19.81 45.6037 23.6661C45.5148 23.8047 45.4259 23.9434 45.3242 24.082C38.2086 20.1124 30.356 17.1384 22.0078 15.3616Z" fill="#FFF215"/>
<path d="M22.186 15.1599C30.9154 15.9034 39.4542 17.9449 47.5101 21.2213C47.4338 21.3726 47.3703 21.5238 47.2941 21.6624C39.3525 18.2599 30.89 16.0546 22.1733 15.1599H22.186Z" fill="#FFF215"/>
<path d="M22.3003 14.9457C31.1059 14.7693 40.0004 15.9286 48.6789 18.4616C48.6408 18.6128 48.59 18.7766 48.5519 18.9278C39.975 16.2437 31.1186 14.9331 22.313 14.9331L22.3003 14.9457Z" fill="#FFF215"/>
<path d="M18.0053 14.3787C9.16161 14.9205 0.432254 16.7856 -7.86508 19.9486C-7.92861 19.7974 -7.97944 19.6462 -8.04297 19.495C0.356014 16.4579 9.13619 14.7567 18.0053 14.3787Z" fill="#FFF215"/>
<path d="M17.9547 14.6055C9.36511 16.0547 1.18214 18.764 -6.3528 22.5698C-6.44175 22.4311 -6.51799 22.2799 -6.60693 22.1413C1.05507 18.4616 9.32699 15.8908 17.9547 14.6055Z" fill="#FFF215"/>
<path d="M17.9675 14.8323C9.89885 17.151 2.46556 20.5787 -4.15452 24.8633C-4.25617 24.7372 -4.35782 24.5986 -4.45947 24.4726C2.28767 20.2888 9.83532 16.9998 17.9675 14.8323Z" fill="#FFF215"/>
<path d="M18.056 15.0591C10.7498 18.1591 4.21863 22.1791 -1.39764 26.8291C-1.51199 26.7157 -1.63906 26.5897 -1.75342 26.4763C4.00262 21.9144 10.6608 18.0205 18.056 15.0591Z" fill="#FFF215"/>
<path d="M18.2086 15.2607C11.8681 19.0539 6.37889 23.5401 1.80456 28.4422C1.66479 28.3413 1.53772 28.2279 1.39795 28.1271C6.12476 23.3006 11.7537 18.9152 18.2086 15.2607Z" fill="#FFF215"/>
<path d="M18.4118 15.4624C13.2276 19.8352 8.84383 24.6743 5.29872 29.7528C5.15895 29.6646 5.00647 29.5763 4.8667 29.4881C8.55158 24.4726 13.0878 19.7218 18.4118 15.4624Z" fill="#FFF215"/>
<path d="M18.6661 15.6262C14.7779 20.4527 11.5632 25.5312 9.03459 30.7357C8.88212 30.6727 8.72964 30.5971 8.56445 30.5341C11.2328 25.38 14.6127 20.3645 18.6661 15.6388V15.6262Z" fill="#FFF215"/>
<path d="M18.9711 15.7649C16.4933 20.8938 14.473 26.1235 12.9101 31.4036C12.7449 31.3532 12.5924 31.3154 12.4272 31.265C14.1172 26.0227 16.3027 20.8308 18.9711 15.7649Z" fill="#FFF215"/>
<path d="M19.3014 15.8657C18.2849 21.1584 17.4717 26.4638 16.8618 31.7817C16.6966 31.7565 16.5314 31.7439 16.3662 31.7187C17.1159 26.426 18.0943 21.1332 19.3014 15.8657Z" fill="#FFF215"/>
</g>
<path d="M20.1529 27.7742C28.1951 27.7742 34.7146 25.6923 34.7146 23.1242C34.7146 20.556 28.1951 18.4741 20.1529 18.4741C12.1108 18.4741 5.59131 20.556 5.59131 23.1242C5.59131 25.6923 12.1108 27.7742 20.1529 27.7742Z" stroke="#EC008C" stroke-width="0.78" stroke-miterlimit="10"/>
<path d="M20.1528 18.9849C18.9965 18.9849 17.8783 19.0227 16.811 19.1109C17.4463 20.9381 18.2595 24.3028 17.3828 28.2219C17.0524 29.6837 16.4933 31.2337 15.5912 32.7964C11.0804 40.622 12.5035 47.9184 18.9203 47.4018C25.3498 46.8851 26.8999 38.5302 25.9597 32.7964C25.7182 31.3094 25.4133 29.7215 25.1083 28.1463C24.4857 24.7943 23.9012 21.4674 24.0918 19.1739C22.8339 19.0605 21.5124 18.9975 20.1528 18.9975V18.9849Z" fill="#FFF215"/>
<path d="M20.1528 19.4637L16.8491 19.5898C16.8491 19.5898 17.2811 18.9345 17.2811 18.9471C18.8568 22.8284 18.933 27.4028 17.332 31.3346C15.4514 35.4175 12.0969 41.1765 15.4514 45.2595C18.1325 47.5404 22.5035 45.7257 23.7742 42.6131C27.3193 35.0899 22.8974 27.2516 23.6217 19.1235L24.0664 19.6528L20.1655 19.4763L20.1528 19.4637ZM20.1528 18.4934C20.4069 18.506 24.4603 18.6824 24.5874 18.695C24.5874 18.695 24.5874 19.1991 24.5874 19.2117C24.7399 27.2768 29.5683 35.6318 25.7437 43.5709C23.0626 50.1364 12.6687 50.527 11.9444 42.5627C11.4616 38.0387 13.6217 34.359 15.642 30.6415C17.2557 27.0878 17.4336 23.0426 16.3409 19.2747L16.1249 18.6446C16.4679 18.6446 19.7081 18.506 20.1401 18.4934H20.1528Z" fill="#EC008C"/>
<path d="M24.6127 25.2478C24.6127 25.2478 21.0803 24.1766 18.0307 25.6132C17.3446 23.1181 16.9507 18.7327 16.9507 18.7327H23.863L24.6254 25.2352L24.6127 25.2478Z" fill="#EC008C"/>
</g>
<defs>
<clipPath id="clip0_3303_633">
<rect width="40" height="49" fill="white"/>
</clipPath>
</defs>
</svg>
