<svg width="73" height="73" viewBox="0 0 73 73" fill="none" xmlns="http://www.w3.org/2000/svg">
<circle cx="36.5" cy="36.5" r="34.5091" fill="#E61791" stroke="#FFF30A" stroke-width="3.98182"/>
<path d="M14.312 47.9272V31.2288H11.1677V25.6118H20.5701V47.9272H14.312ZM24.2247 41.1807H29.8112C30.0555 42.5239 30.7576 43.2566 32.0703 43.2566C33.9629 43.2566 34.4514 41.3944 34.4514 37.7922C33.6577 38.9828 32.1008 39.7154 30.2691 39.7154C26.5143 39.7154 23.6753 37.3648 23.6753 32.6026C23.6753 28.0235 26.6669 25.1234 31.4292 25.1234C38.0536 25.1234 39.7937 29.5804 39.7937 36.1437C39.7937 43.745 37.901 48.0799 31.8871 48.0799C26.9417 48.0799 24.4384 44.6914 24.2247 41.1807ZM31.7039 35.0753C33.1082 35.0753 33.9935 34.19 33.9935 32.7552C33.9935 31.1067 33.0777 30.313 31.6429 30.313C30.2081 30.313 29.2923 31.1678 29.2923 32.7247C29.2923 34.1289 30.147 35.0753 31.7039 35.0753ZM47.0727 29.6109H52.8119V34.7089H57.7268V40.1123H52.8119V45.1798H47.0727V40.1123H42.1273V34.7089H47.0727V29.6109Z" fill="#FFF30A"/>
</svg>
