<svg width="112" height="97" viewBox="0 0 112 97" fill="none" xmlns="http://www.w3.org/2000/svg">
<path d="M4.45615 33.6676C3.78622 34.5468 3.95467 35.8021 4.83241 36.4714C5.71015 37.1408 6.96479 36.9707 7.63472 36.0915L6.04544 34.8796L4.45615 33.6676ZM58.7052 31.3412L60.5085 30.4752L58.7052 31.3412ZM30.9972 52.6365L29.1053 53.2858L30.9972 52.6365ZM92.9992 73.205C93.5795 74.1443 94.8114 74.4342 95.7508 73.8524L111.059 64.371C111.999 63.7892 112.29 62.556 111.71 61.6166C111.129 60.6773 109.897 60.3875 108.958 60.9693L95.3504 69.3972L86.9446 55.7903C86.3643 54.851 85.1324 54.5611 84.193 55.143C83.2535 55.7248 82.9624 56.958 83.5427 57.8973L92.9992 73.205ZM6.04544 34.8796L7.63472 36.0915C13.4252 28.4928 23.6829 22.8214 33.6284 21.4985C43.5297 20.1815 52.584 23.1864 56.9018 32.2072L58.7052 31.3412L60.5085 30.4752C55.1887 19.3609 44.0546 16.0757 33.1062 17.532C22.2019 18.9824 10.9486 25.1477 4.45615 33.6676L6.04544 34.8796ZM58.7052 31.3412L56.9018 32.2072C59.7166 38.0879 59.72 42.9359 58.3085 46.6989C56.8819 50.5022 53.9171 53.4429 50.3732 55.2879C46.8139 57.1409 42.8272 57.805 39.5401 57.2186C36.2994 56.6404 33.8852 54.9027 32.8891 51.9872L30.9972 52.6365L29.1053 53.2858C30.6764 57.884 34.5153 60.3874 38.8336 61.1578C43.1054 61.92 47.9837 61.0402 52.2154 58.8371C56.4626 56.6259 60.215 52.9982 62.0519 48.101C63.904 43.1635 63.7172 37.1789 60.5085 30.4752L58.7052 31.3412ZM30.9972 52.6365L32.8891 51.9872C32.2057 49.9872 32.5732 47.5461 34.1449 44.7488C35.7133 41.9574 38.3735 39.0247 41.8296 36.2586C48.7458 30.7234 58.4701 26.1561 67.7524 24.7841C77.0533 23.4093 85.4335 25.2781 90.44 31.9142C95.5225 38.6511 97.6525 50.9462 92.7544 71.6937L94.7001 72.1515L96.6459 72.6093C101.631 51.4923 99.8071 37.6855 93.6323 29.5009C87.3816 21.2155 77.2013 19.3433 67.1728 20.8257C57.1256 22.3108 46.7515 27.1989 39.3344 33.1349C35.624 36.1045 32.5589 39.4114 30.66 42.7909C28.7646 46.1644 27.9229 49.8253 29.1053 53.2858L30.9972 52.6365Z" fill="#E61791" style="fill:#E61791;fill:color(display-p3 0.9000 0.0900 0.5705);fill-opacity:1;"/>
</svg>
