<svg width="45" height="26" viewBox="0 0 45 26" fill="none" xmlns="http://www.w3.org/2000/svg">
<g clip-path="url(#clip0_3285_529)">
<path d="M32.25 3V22.5H12.75V3H32.25ZM22.8648 20.9908L22.6816 17.4727C22.6926 17.2204 22.8973 17.0502 23.1541 17.0952L26.6169 17.703L26.1428 16.3782C26.1059 16.2746 26.1798 16.1365 26.2765 16.0747L30.0485 13.0197L29.1527 12.5871C29.0861 12.555 29.0223 12.3941 29.0492 12.3125L29.8109 9.97044L27.5802 10.4413C27.4652 10.4348 27.3681 10.3812 27.3185 10.291L26.8851 9.27941L25.1942 11.0962C25.1 11.1977 24.9607 11.2355 24.8384 11.1648C24.7506 11.114 24.6986 10.9877 24.7226 10.8634L25.5408 6.62781L24.2331 7.37328C24.0811 7.46794 23.8938 7.40781 23.8288 7.23434L22.5 4.62947L21.1712 7.23556C21.1342 7.30828 21.0533 7.39481 20.9944 7.41106C20.9355 7.42731 20.8027 7.39684 20.7417 7.3615L19.4548 6.61684L20.2778 10.863C20.3046 11.0011 20.2412 11.1335 20.1348 11.1794C20.0194 11.229 19.8919 11.1876 19.807 11.0962L18.1157 9.279L17.6815 10.2906C17.6283 10.397 17.5084 10.4502 17.3829 10.4328L15.192 9.96881L15.9496 12.3125C15.9833 12.4161 15.9049 12.5578 15.8204 12.6033L14.9535 13.0202L18.7694 16.1101C18.8486 16.1881 18.8836 16.3092 18.8482 16.4075L18.3818 17.7046L21.8874 17.09C22.1128 17.0506 22.3282 17.2517 22.3168 17.4722L22.1348 20.9969L22.8644 20.9908H22.8648Z" fill="#FFF30A"/>
<path d="M12.75 3H3V22.5H12.75V3Z" fill="#E61791"/>
<path d="M42 3H32.25V22.5H42V3Z" fill="#E61791"/>
<path d="M22.865 20.9907L22.1354 20.9968L22.3174 17.4722C22.3288 17.2516 22.1134 17.0505 21.888 17.0899L18.3824 17.7045L18.8488 16.4074C18.8842 16.3091 18.8488 16.188 18.77 16.11L14.9541 13.0201L15.821 12.6033C15.9059 12.5578 15.9839 12.4164 15.9502 12.3124L15.1926 9.96874L17.3835 10.4327C17.509 10.4501 17.6293 10.3969 17.6821 10.2905L18.1164 9.27893L19.8076 11.0961C19.8925 11.1875 20.02 11.2293 20.1354 11.1794C20.2423 11.1335 20.3052 11.001 20.2784 10.8629L19.4554 6.61677L20.7424 7.36143C20.8033 7.39677 20.9333 7.42764 20.995 7.41099C21.0568 7.39433 21.1348 7.30821 21.1718 7.23549L22.5006 4.62939L23.8294 7.23427C23.894 7.40774 24.0817 7.46786 24.2337 7.37321L25.5414 6.62774L24.7232 10.8633C24.6992 10.9876 24.7508 11.1144 24.839 11.1647C24.9613 11.2354 25.1002 11.1976 25.1949 11.0961L26.8857 9.27933L27.3191 10.2909C27.3687 10.3807 27.4658 10.4347 27.5808 10.4412L29.8115 9.97036L29.0498 12.3124C29.0234 12.3941 29.0867 12.5545 29.1534 12.587L30.0491 13.0197L26.2771 16.0747C26.1804 16.1364 26.1061 16.2746 26.1434 16.3781L26.6175 17.7029L23.1547 17.0952C22.8979 17.0501 22.6932 17.2203 22.6822 17.4726L22.8654 20.9907H22.865Z" fill="#E61791"/>
</g>
<rect x="1.5" y="1.5" width="42" height="22.5" stroke="#2C2630" stroke-width="3"/>
<defs>
<clipPath id="clip0_3285_529">
<rect x="3" y="3" width="39" height="19.5" fill="white"/>
</clipPath>
</defs>
</svg>
