<svg width="72" height="72" viewBox="0 0 72 72" fill="none" xmlns="http://www.w3.org/2000/svg">
<path d="M40.919 65.1934C38.2212 67.9551 33.7788 67.9551 31.0811 65.1934C28.9353 62.9965 25.8475 61.9928 22.8203 62.5088C19.0144 63.1575 15.4205 60.5467 14.8613 56.7266C14.4166 53.688 12.5083 51.0611 9.75587 49.6992C6.29542 47.987 4.92269 43.762 6.71583 40.3428C8.14196 37.6232 8.14196 34.3767 6.71583 31.6572C4.92269 28.238 6.29542 24.013 9.75587 22.3008C12.5083 20.9389 14.4166 18.312 14.8613 15.2734C15.4205 11.4533 19.0144 8.84244 22.8203 9.49121C25.8475 10.0072 28.9353 9.00346 31.0811 6.80664C33.7788 4.0449 38.2212 4.04489 40.919 6.80664C43.0647 9.00346 46.1525 10.0072 49.1797 9.49121C52.9856 8.84245 56.5795 11.4533 57.1387 15.2734C57.5834 18.312 59.4918 20.9389 62.2442 22.3008C65.7046 24.013 67.0773 28.238 65.2842 31.6572C63.8581 34.3768 63.8581 37.6232 65.2842 40.3428C67.0773 43.762 65.7046 47.987 62.2442 49.6992C59.4918 51.0611 57.5834 53.688 57.1387 56.7266C56.5795 60.5467 52.9856 63.1576 49.1797 62.5088C46.1525 61.9928 43.0647 62.9965 40.919 65.1934Z" fill="#EA1594" stroke="#FFF30A" stroke-width="2.47471"/>
<path d="M35.8262 44.7429L35.8262 50.3044L16.7998 35.6003L35.8262 20.8953L35.8262 27.1101L48.999 27.1101L48.999 44.7429L35.8262 44.7429Z" fill="#FFF30A"/>
</svg>
