<svg width="75" height="75" viewBox="0 0 75 75" fill="none" xmlns="http://www.w3.org/2000/svg">
<path d="M32.6738 7.38086C35.3209 4.67113 39.6791 4.67113 42.3262 7.38086C44.6567 9.76688 48.0109 10.8564 51.2988 10.2959C55.0333 9.65942 58.5598 12.2223 59.1084 15.9707C59.5915 19.2707 61.664 22.1234 64.6533 23.6025C68.0488 25.2826 69.3961 29.4282 67.6367 32.7832C66.0877 35.737 66.0877 39.263 67.6367 42.2168C69.3961 45.5718 68.0488 49.7174 64.6533 51.3975C61.664 52.8766 59.5915 55.7293 59.1084 59.0293C58.5598 62.7777 55.0333 65.3406 51.2988 64.7041C48.0109 64.1436 44.6567 65.2331 42.3262 67.6191C39.6791 70.3289 35.3209 70.3289 32.6738 67.6191C30.3433 65.2331 26.9891 64.1436 23.7012 64.7041C19.9667 65.3406 16.4402 62.7777 15.8916 59.0293C15.4085 55.7293 13.336 52.8766 10.3467 51.3975C6.95124 49.7174 5.60386 45.5718 7.36328 42.2168C8.91234 39.263 8.91234 35.737 7.36328 32.7832C5.60386 29.4282 6.95124 25.2826 10.3467 23.6025C13.336 22.1234 15.4085 19.2707 15.8916 15.9707C16.4402 12.2223 19.9667 9.65942 23.7012 10.2959C26.9891 10.8564 30.3433 9.76688 32.6738 7.38086Z" fill="#EA1594" stroke="#FFF30A" stroke-width="3.40909"/>
<path d="M26.2912 54.5908C26.0056 54.4004 25.1489 49.1173 25.3393 47.8322C35.9532 34.6956 37.0955 33.9817 37.0955 31.4591C37.0955 30.6975 36.1436 29.7932 35.2869 29.7932C32.2883 29.7932 30.8128 32.0778 30.8128 32.0778C30.0513 32.649 25.8152 26.2711 25.8152 25.5095C25.8152 24.7956 29.1469 20.7023 35.9056 20.7023C42.2835 20.7023 47.5191 23.3677 47.5191 29.8884C47.5191 33.6485 46.3292 35.9331 38.2854 46.3091L47.5191 46.1663C48.0426 46.785 47.8999 54.5432 47.4715 54.4956C46.7099 54.3052 26.6243 54.8288 26.2912 54.5908Z" fill="#FFF30A"/>
</svg>
