<svg width="87" height="87" viewBox="0 0 87 87" fill="none" xmlns="http://www.w3.org/2000/svg">
<path d="M34.5166 4.86719C37.9364 1.36611 43.5684 1.36613 46.9883 4.86719C49.6769 7.61982 53.5457 8.87705 57.3389 8.23047C62.1635 7.40817 66.719 10.7189 67.4277 15.5615C67.985 19.3687 70.3765 22.6598 73.8252 24.3662C78.2118 26.5368 79.9517 31.8922 77.6787 36.2266C75.8916 39.6342 75.8916 43.7027 77.6787 47.1104C79.9518 51.4448 78.2118 56.8001 73.8252 58.9707C70.3765 60.6771 67.985 63.9682 67.4277 67.7754C66.719 72.6181 62.1635 75.9288 57.3389 75.1064C53.5457 74.4599 49.6769 75.7171 46.9883 78.4697C43.5684 81.9708 37.9364 81.9708 34.5166 78.4697C31.828 75.7171 27.9591 74.4599 24.166 75.1064C19.3414 75.9287 14.7859 72.618 14.0771 67.7754C13.5199 63.9682 11.1283 60.6771 7.67969 58.9707C3.29313 56.8001 1.55315 51.4447 3.82617 47.1104C5.61324 43.7027 5.61324 39.6342 3.82617 36.2266C1.55319 31.8922 3.29313 26.5368 7.67969 24.3662C11.1284 22.6598 13.5199 19.3687 14.0771 15.5615C14.7859 10.7189 19.3414 7.40821 24.166 8.23047C27.9591 8.87705 31.828 7.61982 34.5166 4.86719Z" fill="#E61791" stroke="#FFF30A" stroke-width="3"/>
<g clip-path="url(#clip0_3303_554)">
<path d="M56.8495 41.7665C56.8495 44.7176 50.4855 47.0654 42.6271 47.0129C34.7688 46.9474 28.4048 44.5078 28.4048 41.5567C28.4048 38.6055 34.5554 35.6413 42.4003 35.7069C50.2453 35.7725 56.8362 38.8285 56.8362 41.7796L56.8495 41.7665Z" stroke="#E61791" stroke-width="0.39" stroke-miterlimit="10"/>
<path d="M42.1604 50.528C42.1604 50.528 61.8662 50.528 61.8662 40.7171C61.8662 40.7171 62.6401 36.3363 54.8618 27.5617C47.0835 18.8001 38.7983 14.157 29.459 24.9909C20.1331 35.8248 16.4908 50.7903 38.7983 50.2787L42.1737 50.5411L42.1604 50.528Z" fill="#FFF30A"/>
<path d="M42.174 50.2C66.216 49.0195 66.0425 38.4349 50.2058 23.8629C39.946 14.5767 31.5406 21.5938 25.7103 31.2866C18.2789 43.9698 25.2833 50.3443 38.7852 49.9245C38.7852 49.9245 38.8119 49.9245 38.8253 49.9245L42.174 50.2131V50.2ZM42.1073 51.9444L38.6785 51.6559H38.8253C23.8958 52.2067 16.1175 44.2715 24.3227 30.5127C33.115 16.2818 43.2681 13.1733 55.1023 26.4992C70.4186 42.4484 62.0533 51.2624 42.1073 51.9444Z" fill="#E61791"/>
<path d="M61.2392 41.8321C59.3847 36.3889 53.7411 33.4509 48.2176 32.6902C46.3097 32.3754 44.3751 32.218 42.4272 32.1262C44.3751 32.0475 46.3364 31.9819 48.2843 32.1787C54.3148 32.5328 60.6655 35.4446 62.9336 41.3337L61.2392 41.8321Z" fill="#E61791"/>
<path d="M42.1603 46.9079C50.6046 46.9079 57.45 44.7411 57.45 42.0681C57.45 39.3951 50.6046 37.2283 42.1603 37.2283C33.716 37.2283 26.8706 39.3951 26.8706 42.0681C26.8706 44.7411 33.716 46.9079 42.1603 46.9079Z" fill="#E61791"/>
<mask id="mask0_3303_554" style="mask-type:luminance" maskUnits="userSpaceOnUse" x="26" y="37" width="32" height="10">
<path d="M42.1603 46.9079C50.6046 46.9079 57.45 44.7411 57.45 42.0681C57.45 39.3951 50.6046 37.2283 42.1603 37.2283C33.716 37.2283 26.8706 39.3951 26.8706 42.0681C26.8706 44.7411 33.716 46.9079 42.1603 46.9079Z" fill="white"/>
</mask>
<g mask="url(#mask0_3303_554)">
<path d="M42.4805 34.605C46.2162 39.6416 49.2981 44.9142 51.7397 50.2918C51.5796 50.3574 51.4061 50.423 51.246 50.4886C48.9512 45.0585 46.0294 39.7334 42.4805 34.605Z" fill="#FFF30A"/>
<path d="M42.8677 34.5525C47.9642 39.1431 52.2603 44.1666 55.7292 49.413C55.5691 49.5048 55.4223 49.5835 55.2622 49.6753C51.9401 44.3633 47.7908 39.2612 42.8677 34.5656V34.5525Z" fill="#FFF30A"/>
<path d="M43.2412 34.4607C49.5652 38.4873 55.022 43.1567 59.5449 48.2195C59.3981 48.3244 59.2514 48.4293 59.118 48.5343C54.7418 43.3928 49.4318 38.6185 43.2412 34.4738V34.4607Z" fill="#FFF30A"/>
<path d="M43.5747 34.3428C50.9394 37.6743 57.4902 41.8976 63.0804 46.7112C62.947 46.8293 62.8136 46.9473 62.6935 47.0654C57.2501 42.16 50.8326 37.8317 43.5747 34.3428Z" fill="#FFF30A"/>
<path d="M43.8682 34.1721C52.0734 36.7166 59.5982 40.3629 66.2424 44.8355C66.1223 44.9667 66.0156 45.0978 65.8955 45.229C59.398 40.6515 52.0067 36.874 43.8682 34.1721Z" fill="#FFF30A"/>
<path d="M44.1084 33.9885C52.9273 35.6805 61.266 38.6185 68.8841 42.632C68.7907 42.7763 68.6973 42.9206 68.5906 43.0649C61.1192 38.9333 52.874 35.8379 44.1084 33.9885Z" fill="#FFF30A"/>
<path d="M44.2951 33.7788C53.4609 34.5527 62.4266 36.6775 70.8853 40.0876C70.8052 40.245 70.7385 40.4024 70.6585 40.5467C62.3199 37.0054 53.4342 34.7101 44.2817 33.7788H44.2951Z" fill="#FFF30A"/>
<path d="M44.415 33.5558C53.6609 33.3722 63.0002 34.5788 72.1126 37.2152C72.0726 37.3726 72.0192 37.5431 71.9792 37.7005C62.9735 34.9067 53.6743 33.5427 44.4284 33.5427L44.415 33.5558Z" fill="#FFF30A"/>
<path d="M39.9059 32.9656C30.62 33.5296 21.4542 35.4707 12.742 38.7629C12.6753 38.6055 12.6219 38.4481 12.5552 38.2907C21.3741 35.1297 30.5933 33.3591 39.9059 32.9656Z" fill="#FFF30A"/>
<path d="M39.8522 33.2017C30.8331 34.71 22.241 37.53 14.3293 41.491C14.2359 41.3468 14.1559 41.1894 14.0625 41.0451C22.1076 37.2152 30.7931 34.5395 39.8522 33.2017Z" fill="#FFF30A"/>
<path d="M39.8657 33.4377C31.3936 35.8511 23.5887 39.4187 16.6376 43.8781C16.5309 43.747 16.4241 43.6027 16.3174 43.4716C23.4019 39.117 31.3269 35.6937 39.8657 33.4377Z" fill="#FFF30A"/>
<path d="M39.9591 33.6738C32.2875 36.9004 25.4298 41.0844 19.5328 45.9243C19.4127 45.8062 19.2793 45.6751 19.1592 45.557C25.203 40.809 32.1941 36.7561 39.9591 33.6738Z" fill="#FFF30A"/>
<path d="M40.119 33.8835C33.4614 37.8315 27.6978 42.5008 22.8947 47.603C22.748 47.498 22.6145 47.38 22.4678 47.2751C27.4309 42.2516 33.3413 37.6872 40.119 33.8835Z" fill="#FFF30A"/>
<path d="M40.3327 34.0935C34.8893 38.6448 30.2863 43.6814 26.564 48.9672C26.4172 48.8753 26.2571 48.7835 26.1104 48.6917C29.9795 43.4715 34.7425 38.5267 40.3327 34.0935Z" fill="#FFF30A"/>
<path d="M40.5994 34.2639C36.5168 39.2874 33.1413 44.5732 30.4863 49.9901C30.3262 49.9245 30.1661 49.8458 29.9927 49.7803C32.7945 44.4158 36.3434 39.1956 40.5994 34.277V34.2639Z" fill="#FFF30A"/>
<path d="M40.9199 34.4082C38.3182 39.7465 36.1969 45.1896 34.5558 50.6853C34.3824 50.6328 34.2223 50.5935 34.0488 50.541C35.8233 45.0847 38.1181 39.6809 40.9199 34.4082Z" fill="#FFF30A"/>
<path d="M41.2665 34.5132C40.1992 40.0219 39.3453 45.5438 38.7049 51.0788C38.5315 51.0526 38.358 51.0395 38.1846 51.0132C38.9717 45.5045 39.9991 39.9957 41.2665 34.5132Z" fill="#FFF30A"/>
</g>
<path d="M42.1603 46.9079C50.6046 46.9079 57.45 44.7411 57.45 42.0681C57.45 39.3951 50.6046 37.2283 42.1603 37.2283C33.716 37.2283 26.8706 39.3951 26.8706 42.0681C26.8706 44.7411 33.716 46.9079 42.1603 46.9079Z" stroke="#E61791" stroke-width="0.78" stroke-miterlimit="10"/>
<path d="M42.1606 37.7598C40.9465 37.7598 39.7724 37.7991 38.6517 37.8909C39.3188 39.7928 40.1727 43.2948 39.2521 47.3739C38.9052 48.8953 38.3182 50.5086 37.3709 52.135C32.6346 60.2801 34.1289 67.8743 40.8665 67.3365C47.6174 66.7988 49.2451 58.1028 48.2578 52.135C48.0043 50.5873 47.6841 48.9347 47.3639 47.2952C46.7102 43.8063 46.0965 40.3436 46.2966 37.9565C44.9757 37.8385 43.5882 37.7729 42.1606 37.7729V37.7598Z" fill="#FFF30A"/>
<path d="M42.1604 38.2582L38.6915 38.3894C38.6915 38.3894 39.1452 37.7074 39.1452 37.7205C40.7995 41.7602 40.8796 46.5214 39.1985 50.6136C37.2239 54.8632 33.7017 60.8572 37.2239 65.1069C40.0391 67.4809 44.6286 65.5922 45.9628 62.3525C49.6852 54.5222 45.0422 46.364 45.8027 37.9041L46.2697 38.455L42.1737 38.2713L42.1604 38.2582ZM42.1604 37.2483C42.4272 37.2614 46.6833 37.445 46.8167 37.4581C46.8167 37.4581 46.8167 37.9828 46.8167 37.9959C46.9768 46.3902 52.0467 55.0862 48.0308 63.3493C45.2157 70.1828 34.3021 70.5894 33.5416 62.3C33.0346 57.5913 35.3027 53.7614 37.4241 49.8922C39.1185 46.1935 39.3053 41.9832 38.1579 38.0615L37.9311 37.4057C38.2913 37.4057 41.6934 37.2614 42.1471 37.2483H42.1604Z" fill="#E61791"/>
<path d="M46.8434 44.2783C46.8434 44.2783 43.1344 43.1635 39.9324 44.6587C39.2119 42.0617 38.7983 37.4973 38.7983 37.4973H46.0563L46.8568 44.2652L46.8434 44.2783Z" fill="#E61791"/>
</g>
<defs>
<clipPath id="clip0_3303_554">
<rect width="42" height="51" fill="white" transform="translate(21 18)"/>
</clipPath>
</defs>
</svg>
